<?xml version="1.0" standalone="no"?>
<!DOCTYPE svg PUBLIC "-//W3C//DTD SVG 1.1//EN" "http://www.w3.org/Graphics/SVG/1.1/DTD/svg11.dtd" >
<svg xmlns="http://www.w3.org/2000/svg">
    <defs>
        <font id="PFAgoraSansPro-Regular">
            <font-face font-family="PFAgoraSansPro-Regular"
                       units-per-em="1000"
                       ascent="750"
                       descent="-250"
                       bbox="-340 -262 1760 941"
                    />
            <missing-glyph horiz-adv-x="0" />
            
            <glyph glyph-name="!" unicode="&#x21;" horiz-adv-x="166" d=" M153,696 L151,399 L142,170 L87,170 L77,399 L73,696 M113,93 Q136,93 151,78 Q166,63 166,42 Q166,20 150.5,4.5 Q135,-11 113,-11 Q90,-11 74.5,4.5 Q59,20 59,42 Q59,63 74.5,78 Q90,93 113,93"/> 
            <glyph glyph-name="&quot;" unicode="&#x22;" horiz-adv-x="228" d=" M169,482 L155,685 L228,685 L215,482 M60,482 L46,685 L120,685 L105,482"/> 
            <glyph glyph-name="#" unicode="&#x23;" horiz-adv-x="498" d=" M418,410 L381,242 L456,242 L447,195 L371,195 L329,0 L277,0 L319,195 L173,195 L130,0 L78,0 L121,195 L46,195 L55,242 L131,242 L168,410 L88,410 L97,456 L178,456 L217,628 L268,628 L230,456 L377,456 L415,628 L467,628 L429,456 L498,456 L489,410 M183,242 L330,242 L366,410 L220,410"/> 
            <glyph glyph-name="$" unicode="&#x24;" horiz-adv-x="500" d=" M292,731 L330,731 L330,667 Q361,665 394,656.5 Q427,648 455,631 L435,575 Q397,592 374,598 Q351,604 330,606 L330,365 Q362,353 392.5,339.5 Q423,326 447,306 Q471,286 485.5,257.5 Q500,229 500,187 Q500,146 487,115.5 Q474,85 451.5,63 Q429,41 398,27.5 Q367,14 330,8 L330,-75 L292,-75 M258,-75 L221,-75 L221,5 Q181,9 142,20 Q103,31 68,52 L93,110 Q140,86 169.5,79 Q199,72 221,69 L221,329 Q191,339 164,353 Q137,367 116.5,386 Q96,405 84.5,431 Q73,457 73,493 Q73,566 115,608.5 Q157,651 221,664 L221,731 L258,731 M430,188 Q430,232 401.5,256 Q373,280 330,296 L330,71 Q378,79 404,107 Q430,135 430,188 M142,499 Q142,454 164,433 Q186,412 221,398 L221,601 Q188,592 165,568 Q142,544 142,499"/> 
            <glyph glyph-name="%" unicode="&#x25;" horiz-adv-x="800" d=" M345,463 Q345,427 337.5,391 Q330,355 311,326.5 Q292,298 261,280 Q230,262 184,262 Q133,262 101,279 Q69,296 51,324.5 Q33,353 26.5,388.5 Q20,424 20,462 Q20,496 26.5,532.5 Q33,569 51,599.5 Q69,630 101.5,649.5 Q134,669 186,669 Q239,669 270.5,649 Q302,629 318.5,598 Q335,567 340,531 Q345,495 345,463 M277,462 Q277,483 275,510 Q273,537 264,560.5 Q255,584 236.5,600 Q218,616 186,616 Q153,616 133.5,600.5 Q114,585 104,562 Q94,539 91,512 Q88,485 88,461 Q88,430 91.5,403 Q95,376 105.5,356 Q116,336 135.5,324.5 Q155,313 186,313 Q214,313 232,326.5 Q250,340 260,361.5 Q270,383 273.5,409.5 Q277,436 277,462 M292,-22 L236,-22 L530,701 L584,701 M800,198 Q800,162 792.5,126 Q785,90 766,61.5 Q747,33 716,15 Q685,-3 639,-3 Q588,-3 556,14 Q524,31 506,59.5 Q488,88 481.5,123.5 Q475,159 475,197 Q475,231 481.5,267.5 Q488,304 506,334.5 Q524,365 556.5,384.5 Q589,404 641,404 Q694,404 725.5,384 Q757,364 773.5,333 Q790,302 795,266 Q800,230 800,198 M732,197 Q732,218 730,245 Q728,272 719,295.5 Q710,319 691.5,335 Q673,351 641,351 Q608,351 588.5,335.5 Q569,320 559,297 Q549,274 546,247 Q543,220 543,196 Q543,165 546.5,138 Q550,111 560.5,91 Q571,71 590.5,59.5 Q610,48 641,48 Q669,48 687,61.5 Q705,75 715,96.5 Q725,118 728.5,144.5 Q732,171 732,197"/> 
            <glyph glyph-name="&amp;" unicode="&#x26;" horiz-adv-x="678" d=" M254,-11 Q208,-11 168,1 Q128,13 98,37 Q68,61 51,97.5 Q34,134 34,183 Q34,250 77,303 Q120,356 200,400 Q170,442 158,473.5 Q146,505 146,536 Q146,564 155,590 Q164,616 182,636 Q200,656 227,668 Q254,680 291,680 Q330,680 357.5,668.5 Q385,657 402.5,638.5 Q420,620 428.5,596.5 Q437,573 437,548 Q437,520 427,496.5 Q417,473 399,453 Q381,433 355.5,414.5 Q330,396 299,378 Q322,344 350,307.5 Q378,271 407,234 Q425,213 443.5,191.5 Q462,170 482,149 Q503,169 521.5,193 Q540,217 554.5,248 Q569,279 579,318 Q589,357 593,407 L660,407 Q657,353 646,308.5 Q635,264 618,227.5 Q601,191 578.5,161 Q556,131 528,105 Q564,70 602.5,44 Q641,18 678,2 L647,-54 Q630,-47 608,-34.5 Q586,-22 563,-6.5 Q540,9 516.5,27 Q493,45 474,63 Q425,27 368,8 Q311,-11 254,-11 M338,213 Q311,248 284.5,282 Q258,316 236,347 Q181,317 144.5,279 Q108,241 108,187 Q108,152 119.5,126 Q131,100 151,83 Q171,66 198,57.5 Q225,49 255,49 Q297,49 341.5,64 Q386,79 428,107 Q402,133 380,160 Q358,187 338,213 M219,541 Q219,516 231.5,489.5 Q244,463 266,432 Q287,443 305.5,454.5 Q324,466 338.5,480 Q353,494 361,510.5 Q369,527 369,548 Q369,581 348,601.5 Q327,622 289,622 Q269,622 256,614 Q243,606 234.5,593.5 Q226,581 222.5,567 Q219,553 219,541"/> 
            <glyph glyph-name="'" unicode="&#x27;" horiz-adv-x="135" d=" M74,482 L60,685 L135,685 L120,482"/> 
            <glyph glyph-name="(" unicode="&#x28;" horiz-adv-x="244" d=" M60,285 Q60,368 76.5,437 Q93,506 116.5,560 Q140,614 165,652.5 Q190,691 208,713 L243,691 Q232,674 213.5,639.5 Q195,605 177.5,554 Q160,503 147.5,435.5 Q135,368 135,286 Q135,194 147.5,122 Q160,50 177.5,-3.5 Q195,-57 213.5,-92 Q232,-127 244,-146 L208,-171 Q191,-150 166,-110.5 Q141,-71 117.5,-14 Q94,43 77,117.5 Q60,192 60,285"/> 
            <glyph glyph-name=")" unicode="&#x29;" horiz-adv-x="216" d=" M216,285 Q216,192 199,117.5 Q182,43 158.5,-14 Q135,-71 109.5,-110.5 Q84,-150 67,-171 L32,-146 Q44,-127 62.5,-92 Q81,-57 98.5,-3.5 Q116,50 128.5,122 Q141,194 141,286 Q141,368 128.5,435.5 Q116,503 98.5,554 Q81,605 62.5,639.5 Q44,674 33,691 L68,713 Q86,691 111,652.5 Q136,614 159.5,560 Q183,506 199.5,437 Q216,368 216,285"/> 
            <glyph glyph-name="*" unicode="&#x2A;" horiz-adv-x="343" d=" M215,577 Q240,590 265,603.5 Q290,617 316,631 Q333,612 337,593.5 Q341,575 343,552 Q313,549 284,545 Q255,541 225,538 L309,459 Q283,426 244,410 L194,516 L145,411 Q125,419 109.5,429.5 Q94,440 78,459 L162,539 L49,554 Q51,578 57,597 Q63,616 75,634 L176,577 Q171,605 164.5,633.5 Q158,662 153,690 Q164,693 175,694 Q186,695 197,695 Q208,695 218,694 Q228,693 238,690 L215,577"/> 
            <glyph glyph-name="+" unicode="&#x2B;" horiz-adv-x="476" d=" M313,270 L313,102 L253,102 L253,270 L89,270 L89,328 L253,328 L253,490 L313,490 L313,328 L476,328 L476,270"/> 
            <glyph glyph-name="," unicode="&#x2C;" horiz-adv-x="161" d=" M48,44 Q48,65 64,81 Q80,97 103,97 Q129,97 145,78.5 Q161,60 161,33 Q161,12 153.5,-11 Q146,-34 132.5,-55.5 Q119,-77 100.5,-95 Q82,-113 60,-124 L40,-98 Q80,-59 85,-5 Q68,0 58,13 Q48,26 48,44"/> 
            <glyph glyph-name="-" unicode="&#x2D;" horiz-adv-x="312" d=" M54,230 L54,298 L312,298 L312,230"/> 
            <glyph glyph-name="." unicode="&#x2E;" horiz-adv-x="154" d=" M154,44 Q154,21 138,5.5 Q122,-10 101,-10 Q78,-10 62.5,5.5 Q47,21 47,44 Q47,66 62.5,81.5 Q78,97 100,97 Q123,97 138.5,81.5 Q154,66 154,44"/> 
            <glyph glyph-name="/" unicode="&#x2F;" horiz-adv-x="325" d=" M69,-28 L15,-28 L271,701 L325,701"/> 
            <glyph glyph-name="0" unicode="&#x30;" horiz-adv-x="523" d=" M523,329 Q523,269 511,209 Q499,149 471.5,101 Q444,53 397.5,23 Q351,-7 282,-7 Q204,-7 155.5,22 Q107,51 80,98 Q53,145 43.5,205 Q34,265 34,327 Q34,383 44,444.5 Q54,506 81,557 Q108,608 156.5,641 Q205,674 283,674 Q336,674 374,658 Q412,642 439,615.5 Q466,589 482.5,554 Q499,519 508,480.5 Q517,442 520,403 Q523,364 523,329 M441,327 Q441,366 437.5,415 Q434,464 418,507 Q402,550 370.5,579.5 Q339,609 283,609 Q227,609 193.5,581 Q160,553 143,510.5 Q126,468 121,418 Q116,368 116,325 Q116,269 122.5,220 Q129,171 147,135 Q165,99 197.5,78 Q230,57 283,57 Q331,57 362,81 Q393,105 410.5,143.5 Q428,182 434.5,230.5 Q441,279 441,327"/> 
            <glyph glyph-name="1" unicode="&#x31;" horiz-adv-x="327" d=" M247,585 L98,575 L98,631 L253,664 L327,664 L327,0 L247,0"/> 
            <glyph glyph-name="2" unicode="&#x32;" horiz-adv-x="482" d=" M154,61 L482,61 L482,0 L41,0 L41,55 Q68,81 103,113 Q138,145 175,181 Q212,217 247.5,255.5 Q283,294 311,333 Q339,372 356,410 Q373,448 373,483 Q373,547 335,576.5 Q297,606 236,606 Q211,606 167.5,597.5 Q124,589 66,554 L38,602 Q68,624 98,638 Q128,652 155.5,660 Q183,668 207,671 Q231,674 250,674 Q295,674 333,663 Q371,652 398,629 Q425,606 440.5,571.5 Q456,537 456,491 Q456,431 423,371 Q390,311 343,255.5 Q296,200 243.5,151.5 Q191,103 152,66"/> 
            <glyph glyph-name="3" unicode="&#x33;" horiz-adv-x="489" d=" M352,598 L69,599 L69,664 L459,664 Q463,651 466,638.5 Q469,626 472,614 L265,408 L268,401 L283,401 Q327,401 365,389.5 Q403,378 430.5,354.5 Q458,331 473.5,295 Q489,259 489,209 Q489,154 469,113 Q449,72 415.5,45 Q382,18 337.5,4.5 Q293,-9 244,-9 Q187,-8 137.5,1 Q88,10 44,30 L64,88 Q119,72 158.5,65 Q198,58 228,58 Q310,58 358.5,94 Q407,130 407,208 Q407,274 358.5,307 Q310,340 220,340 Q206,340 193,339 Q180,338 165,336 L150,384 L356,591"/> 
            <glyph glyph-name="4" unicode="&#x34;" horiz-adv-x="526" d=" M429,184 L429,0 L351,0 Q351,46 351.5,92 Q352,138 352,184 L32,184 L32,242 L344,664 L429,664 L429,244 L526,244 L526,184 M347,568 Q287,487 229,406 Q171,325 109,244 L353,244 L353,568"/> 
            <glyph glyph-name="5" unicode="&#x35;" horiz-adv-x="494" d=" M251,354 Q222,354 193,347 Q164,340 137,327 L89,359 L109,664 L464,664 L464,599 L176,599 L163,397 Q177,401 203.5,409 Q230,417 275,417 Q316,417 355.5,405.5 Q395,394 425.5,369 Q456,344 475,304.5 Q494,265 494,210 Q494,154 474,113 Q454,72 421,45 Q388,18 344.5,4.5 Q301,-9 254,-9 Q199,-9 146.5,0 Q94,9 49,31 L68,89 Q124,72 163.5,65.5 Q203,59 234,59 Q315,59 363.5,95 Q412,131 412,210 Q412,246 399,273 Q386,300 364,318 Q342,336 312.5,345 Q283,354 251,354"/> 
            <glyph glyph-name="6" unicode="&#x36;" horiz-adv-x="507" d=" M137,366 Q175,386 215,400.5 Q255,415 306,415 Q345,415 381.5,403.5 Q418,392 446,367 Q474,342 490.5,303 Q507,264 507,209 Q507,158 490.5,118 Q474,78 444.5,50.5 Q415,23 373.5,8 Q332,-7 282,-7 Q214,-7 169.5,17.5 Q125,42 99,84 Q73,126 62.5,182.5 Q52,239 52,303 Q52,384 68,452 Q84,520 116.5,569.5 Q149,619 198.5,646.5 Q248,674 316,674 Q369,674 406.5,663 Q444,652 461,643 Q456,629 452,614.5 Q448,600 443,586 Q406,600 374,605 Q342,610 318,610 Q262,610 227,583 Q192,556 171,517.5 Q150,479 141.5,438 Q133,397 132,369 M291,352 Q254,352 225,344.5 Q196,337 176,327.5 Q156,318 145,310 Q134,302 133,301 L133,280 Q133,248 137.5,209 Q142,170 158,136 Q174,102 203.5,79 Q233,56 284,56 Q355,56 391.5,98 Q428,140 428,205 Q428,237 421,264 Q414,291 398,310.5 Q382,330 356,341 Q330,352 291,352"/> 
            <glyph glyph-name="7" unicode="&#x37;" horiz-adv-x="483" d=" M78,599 L78,664 L483,664 L483,605 L210,0 L133,0 L404,599"/> 
            <glyph glyph-name="8" unicode="&#x38;" horiz-adv-x="505" d=" M162,508 Q162,483 174,465 Q186,447 207,433 Q228,419 256,406 Q284,393 317,378 Q369,413 389.5,442.5 Q410,472 410,503 Q410,520 403,539 Q396,558 381,574 Q366,590 341.5,600.5 Q317,611 283,611 Q249,611 226,600 Q203,589 188.5,573 Q174,557 168,539 Q162,521 162,508 M277,53 Q349,53 388,89.5 Q427,126 427,181 Q427,210 413,231.5 Q399,253 373.5,271 Q348,289 311.5,305.5 Q275,322 230,341 Q200,323 181,301.5 Q162,280 150.5,258.5 Q139,237 134.5,215.5 Q130,194 130,175 Q130,150 139,127.5 Q148,105 166.5,88.5 Q185,72 212.5,62.5 Q240,53 277,53 M487,514 Q487,496 483,476 Q479,456 468,435.5 Q457,415 438,393 Q419,371 388,349 Q411,337 432.5,320.5 Q454,304 470,282 Q486,260 495.5,233.5 Q505,207 505,176 Q505,137 489,103.5 Q473,70 443,45 Q413,20 370,6 Q327,-8 274,-8 Q164,-8 106,40 Q48,88 48,165 Q48,190 54,218 Q60,246 74,273 Q88,300 112,325 Q136,350 171,370 Q123,398 101,428.5 Q79,459 79,508 Q79,544 94.5,574.5 Q110,605 137.5,627.5 Q165,650 203,663 Q241,676 286,676 Q321,676 356.5,667 Q392,658 421,638.5 Q450,619 468.5,588 Q487,557 487,514"/> 
            <glyph glyph-name="9" unicode="&#x39;" horiz-adv-x="498" d=" M413,301 Q376,279 335.5,265 Q295,251 244,251 Q204,251 167.5,262.5 Q131,274 103.5,299 Q76,324 59.5,363 Q43,402 43,457 Q43,508 59.5,548 Q76,588 105.5,616 Q135,644 176.5,659 Q218,674 268,674 Q335,674 379.5,649.5 Q424,625 450.5,582.5 Q477,540 487.5,483.5 Q498,427 498,363 Q498,282 482,214.5 Q466,147 433.5,98 Q401,49 351,21.5 Q301,-6 234,-6 Q180,-6 138.5,4.5 Q97,15 80,24 Q85,38 89,52.5 Q93,67 98,81 Q135,67 171.5,62 Q208,57 232,57 Q287,57 322.5,84 Q358,111 378.5,149.5 Q399,188 407.5,229 Q416,270 418,298 M259,314 Q296,314 325,321.5 Q354,329 374,338.5 Q394,348 404.5,356 Q415,364 417,365 L417,387 Q417,418 412.5,456 Q408,494 392,527.5 Q376,561 346.5,584 Q317,607 266,607 Q194,607 158,566.5 Q122,526 122,461 Q122,429 129,402 Q136,375 152,355.5 Q168,336 194,325 Q220,314 259,314"/> 
            <glyph glyph-name=":" unicode="&#x3A;" horiz-adv-x="158" d=" M158,46 Q158,24 143.5,8 Q129,-8 105,-8 Q82,-8 66.5,8 Q51,24 51,46 Q51,68 66.5,83.5 Q82,99 104,99 Q127,99 142.5,83.5 Q158,68 158,46 M158,360 Q158,337 142,321.5 Q126,306 105,306 Q83,306 67,322 Q51,338 51,360 Q51,383 66.5,398 Q82,413 104,413 Q127,413 142.5,398 Q158,383 158,360"/> 
            <glyph glyph-name=";" unicode="&#x3B;" horiz-adv-x="161" d=" M158,360 Q158,337 142,321.5 Q126,306 105,306 Q83,306 67,322 Q51,338 51,360 Q51,383 66.5,398 Q82,413 104,413 Q127,413 142.5,398 Q158,383 158,360 M48,44 Q48,65 64,81 Q80,97 103,97 Q129,97 145,78.5 Q161,60 161,33 Q161,12 153.5,-10.5 Q146,-33 132.5,-54.5 Q119,-76 100.5,-94 Q82,-112 60,-123 L40,-96 Q81,-59 85,-5 Q68,0 58,13 Q48,26 48,44"/> 
            <glyph glyph-name="&lt;" unicode="&#x3C;" horiz-adv-x="482" d=" M482,71 L84,272 L84,322 L482,522 L482,454 L157,298 L482,138"/> 
            <glyph glyph-name="=" unicode="&#x3D;" horiz-adv-x="480" d=" M77,345 L77,403 L480,403 L480,345 M77,200 L77,257 L480,257 L480,200"/> 
            <glyph glyph-name="&gt;" unicode="&#x3E;" horiz-adv-x="482" d=" M84,138 L409,298 L84,454 L84,522 L482,322 L482,272 L84,71"/> 
            <glyph glyph-name="?" unicode="&#x3F;" horiz-adv-x="414" d=" M255,444 Q288,473 307.5,500 Q327,527 327,560 Q327,581 318.5,595.5 Q310,610 295.5,619 Q281,628 261,632.5 Q241,637 218,637 Q188,637 150.5,632 Q113,627 61,610 Q56,626 51.5,641 Q47,656 42,672 Q90,689 137.5,696.5 Q185,704 223,704 Q319,704 366.5,666.5 Q414,629 414,562 Q414,525 398,494.5 Q382,464 358,438 Q334,412 306,389 Q278,366 254,343 Q230,320 214,296.5 Q198,273 198,246 Q198,229 201,212.5 Q204,196 207,174 L141,165 Q134,194 131.5,217 Q129,240 129,256 Q129,284 137.5,307 Q146,330 162,351.5 Q178,373 201.5,395.5 Q225,418 255,444 M243,41 Q243,19 227.5,4.5 Q212,-10 191,-10 Q169,-10 153.5,5 Q138,20 138,41 Q138,62 153,77 Q168,92 190,92 Q213,92 228,77 Q243,62 243,41"/> 
            <glyph glyph-name="@" unicode="&#x40;" horiz-adv-x="846" d=" M482,697 Q567,697 634.5,672 Q702,647 749,602 Q796,557 821,493.5 Q846,430 846,353 Q845,300 829.5,260 Q814,220 788.5,193.5 Q763,167 730.5,153.5 Q698,140 664,140 Q632,140 599,154 Q566,168 551,198 Q527,174 490.5,158.5 Q454,143 413,143 Q378,143 356,154.5 Q334,166 321,183.5 Q308,201 303.5,220.5 Q299,240 299,257 Q299,307 331.5,336.5 Q364,366 424,372 L538,382 L538,404 Q538,451 522,468.5 Q506,486 461,486 Q435,486 404.5,480.5 Q374,475 341,464 L333,490 Q331,495 329,502.5 Q327,510 324,515 Q359,530 398.5,538.5 Q438,547 476,547 Q536,547 570.5,518 Q605,489 605,416 L605,257 Q605,228 621.5,211.5 Q638,195 673,195 Q693,195 713,204 Q733,213 749.5,232 Q766,251 776.5,280.5 Q787,310 787,351 Q787,419 765.5,473.5 Q744,528 704,565.5 Q664,603 608,623 Q552,643 482,643 Q412,643 349.5,619 Q287,595 240.5,552 Q194,509 166.5,451 Q139,393 139,325 Q139,256 163,198 Q187,140 229.5,97 Q272,54 329.5,30 Q387,6 454,6 Q482,6 514,10 Q546,14 584,28 L601,-21 Q572,-34 533,-41.5 Q494,-49 456,-49 Q372,-49 302.5,-21 Q233,7 183.5,56.5 Q134,106 107,174 Q80,242 80,323 Q80,404 111.5,472.5 Q143,541 198,591 Q253,641 326,669 Q399,697 482,697 M445,325 Q415,322 394,306 Q373,290 373,263 Q373,232 388.5,215.5 Q404,199 439,199 Q486,199 538,242 L538,333"/> 
            <glyph glyph-name="A" unicode="&#x41;" horiz-adv-x="568" d=" M479,0 Q465,45 451,89.5 Q437,134 423,179 L153,179 Q139,134 125,89.5 Q111,45 97,0 L10,0 Q71,186 128,357 Q185,528 236,685 L344,685 L568,0 M403,244 Q380,320 357,396.5 Q334,473 310,548 L290,615 L287,615 L267,547 Q256,510 245,474.5 Q234,439 223,402.5 Q212,366 200,327 Q188,288 174,244"/> 
            <glyph glyph-name="B" unicode="&#x42;" horiz-adv-x="546" d=" M80,684 L326,684 Q376,684 414,671 Q452,658 477,634.5 Q502,611 514.5,579 Q527,547 527,509 Q527,467 506.5,426 Q486,385 433,358 Q467,347 488.5,326.5 Q510,306 523,281.5 Q536,257 541,231.5 Q546,206 546,186 Q546,144 530.5,109.5 Q515,75 488.5,50.5 Q462,26 427,13 Q392,0 353,0 L80,0 M462,194 Q462,219 453.5,242.5 Q445,266 428,284 Q411,302 385,312.5 Q359,323 325,323 L164,323 L164,65 L325,65 Q362,65 388,75.5 Q414,86 430.5,103.5 Q447,121 454.5,144.5 Q462,168 462,194 M442,502 Q442,553 410.5,586 Q379,619 307,619 L164,619 L164,387 L307,387 Q373,387 407.5,418 Q442,449 442,502"/> 
            <glyph glyph-name="C" unicode="&#x43;" horiz-adv-x="549" d=" M360,696 Q416,696 459,687.5 Q502,679 533,668 L515,605 Q474,619 437,623.5 Q400,628 368,628 Q312,628 270.5,608 Q229,588 202,550.5 Q175,513 161.5,459 Q148,405 148,338 Q148,279 157.5,228.5 Q167,178 192,140.5 Q217,103 260,81.5 Q303,60 370,60 Q383,60 403,61.5 Q423,63 445,66 Q467,69 490,73.5 Q513,78 533,84 L549,24 Q531,17 507.5,11 Q484,5 458,1 Q432,-3 405.5,-5.5 Q379,-8 355,-8 Q273,-8 217,17 Q161,42 126,87.5 Q91,133 75.5,197 Q60,261 60,338 Q60,375 65.5,415.5 Q71,456 84.5,496 Q98,536 120.5,572 Q143,608 176,635.5 Q209,663 254.5,679.5 Q300,696 360,696"/> 
            <glyph glyph-name="D" unicode="&#x44;" horiz-adv-x="584" d=" M80,0 L80,685 L303,685 Q386,685 440.5,657.5 Q495,630 527,583 Q559,536 571.5,474.5 Q584,413 584,344 Q584,274 570,211.5 Q556,149 522.5,102 Q489,55 433.5,27.5 Q378,0 294,0 M167,620 L167,66 L284,66 Q299,66 321,68 Q343,70 366.5,78 Q390,86 413,103 Q436,120 454.5,150 Q473,180 484.5,225.5 Q496,271 496,337 Q496,404 485.5,451 Q475,498 458,529.5 Q441,561 419,579 Q397,597 374,606 Q351,615 329,617.5 Q307,620 289,620"/> 
            <glyph glyph-name="E" unicode="&#x45;" horiz-adv-x="513" d=" M80,0 L80,684 L497,684 L497,620 L165,620 L165,393 L445,393 L445,331 L165,331 L165,65 L513,65 L513,0"/> 
            <glyph glyph-name="F" unicode="&#x46;" horiz-adv-x="494" d=" M80,0 L80,684 L494,684 L494,619 L165,619 L165,388 L437,388 L437,324 L165,324 L165,0"/> 
            <glyph glyph-name="G" unicode="&#x47;" horiz-adv-x="560" d=" M375,696 Q430,696 474.5,687.5 Q519,679 550,668 L533,605 Q490,619 452,623.5 Q414,628 382,628 Q322,628 277.5,607.5 Q233,587 204.5,549 Q176,511 162,457 Q148,403 148,335 Q148,278 157.5,228 Q167,178 191,141.5 Q215,105 256,83.5 Q297,62 360,62 Q373,62 389,63 Q405,64 421.5,66 Q438,68 453.5,70.5 Q469,73 481,77 L481,352 L560,352 L560,24 Q509,7 456.5,-0.5 Q404,-8 353,-8 Q272,-8 216.5,17.5 Q161,43 126,88.5 Q91,134 75.5,198 Q60,262 60,339 Q60,375 65.5,416 Q71,457 84.5,496.5 Q98,536 121.5,572 Q145,608 180,635.5 Q215,663 263,679.5 Q311,696 375,696"/> 
            <glyph glyph-name="H" unicode="&#x48;" horiz-adv-x="573" d=" M486,0 L486,327 L166,327 Q166,245 166.5,163.5 Q167,82 167,0 L80,0 L80,684 L167,684 Q167,611 166.5,540 Q166,469 166,396 L486,396 L486,684 L573,684 L573,0"/> 
            <glyph glyph-name="I" unicode="&#x49;" horiz-adv-x="174" d=" M90,0 L90,685 L174,685 L174,0"/> 
            <glyph glyph-name="J" unicode="&#x4A;" horiz-adv-x="209" d=" M124,685 L209,685 L208,131 Q208,66 193,17 Q178,-32 149,-69 Q120,-106 77,-133 Q34,-160 -23,-180 L-47,-119 Q1,-92 33.5,-67 Q66,-42 86,-14 Q106,14 114.5,47.5 Q123,81 123,126"/> 
            <glyph glyph-name="K" unicode="&#x4B;" horiz-adv-x="569" d=" M164,0 L80,0 L80,685 L164,685 L164,374 L463,685 L559,685 L294,412 L569,0 L474,0 L239,355 L164,278"/> 
            <glyph glyph-name="L" unicode="&#x4C;" horiz-adv-x="527" d=" M80,0 L80,684 L165,684 L165,63 L527,63 L527,0"/> 
            <glyph glyph-name="M" unicode="&#x4D;" horiz-adv-x="741" d=" M414,159 Q446,232 479.5,305 Q513,378 545,452 L649,684 L741,684 L741,0 L659,0 L659,535 L657,535 L597,398 Q579,359 561.5,319.5 Q544,280 525,240 Q506,196 487,154 Q468,112 448,68 L369,68 L304,216 Q282,266 260,314.5 Q238,363 215,413 Q202,444 189,474 Q176,504 163,534 L161,534 Q161,400 160.5,267 Q160,134 160,0 L80,0 L80,684 L176,684 L278,452 L408,159"/> 
            <glyph glyph-name="N" unicode="&#x4E;" horiz-adv-x="602" d=" M520,139 L520,684 L602,684 L602,0 L519,0 L255,413 L165,557 Q164,557 163.5,556.5 Q163,556 161,556 L161,0 L80,0 L80,684 L165,684 Q229,586 290.5,490 Q352,394 415,296 L515,139"/> 
            <glyph glyph-name="O" unicode="&#x4F;" horiz-adv-x="638" d=" M638,340 Q638,266 620,202 Q602,138 566.5,91.5 Q531,45 477.5,18.5 Q424,-8 354,-8 Q274,-8 218.5,16.5 Q163,41 127.5,86 Q92,131 76,194.5 Q60,258 60,337 Q60,408 75.5,473 Q91,538 125.5,587.5 Q160,637 216.5,666 Q273,695 354,695 Q436,695 491,665.5 Q546,636 578.5,587 Q611,538 624.5,474 Q638,410 638,340 M549,337 Q549,388 541.5,440 Q534,492 513,534.5 Q492,577 454,604 Q416,631 354,631 Q292,631 252,606 Q212,581 189,539.5 Q166,498 157,445 Q148,392 148,336 Q148,199 196,128 Q244,57 354,57 Q404,57 441,79 Q478,101 502,139 Q526,177 537.5,228 Q549,279 549,337"/> 
            <glyph glyph-name="P" unicode="&#x50;" horiz-adv-x="517" d=" M517,486 Q517,455 507.5,419 Q498,383 474.5,352.5 Q451,322 411.5,301.5 Q372,281 313,281 L165,281 L166,0 L80,0 L80,685 L304,685 Q351,685 390,672.5 Q429,660 457.5,635 Q486,610 501.5,572.5 Q517,535 517,486 M165,620 L165,345 L301,345 Q325,345 348,351.5 Q371,358 389.5,374 Q408,390 419,416.5 Q430,443 430,483 Q430,518 420,544 Q410,570 392,587 Q374,604 349.5,612 Q325,620 297,620"/> 
            <glyph glyph-name="Q" unicode="&#x51;" horiz-adv-x="637" d=" M637,339 Q637,284 627,234.5 Q617,185 597.5,144 Q578,103 549,71.5 Q520,40 481,21 L635,-20 Q627,-37 621,-55.5 Q615,-74 608,-91 Q551,-72 495.5,-53.5 Q440,-35 383,-15 L353,-11 Q274,-6 218.5,18.5 Q163,43 127.5,86.5 Q92,130 76,193 Q60,256 60,337 Q60,408 75.5,473 Q91,538 125.5,587.5 Q160,637 216,666 Q272,695 353,695 Q435,695 490,665.5 Q545,636 577.5,586.5 Q610,537 623.5,473 Q637,409 637,339 M549,337 Q549,387 541.5,439 Q534,491 513,533.5 Q492,576 453.5,603 Q415,630 353,630 Q291,630 251,605 Q211,580 188,538.5 Q165,497 156,444 Q147,391 147,335 Q147,198 195.5,127 Q244,56 353,56 Q404,56 441,78 Q478,100 502,138 Q526,176 537.5,227 Q549,278 549,337"/> 
            <glyph glyph-name="R" unicode="&#x52;" horiz-adv-x="542" d=" M519,496 Q519,435 488.5,385.5 Q458,336 398,319 Q438,307 456,273.5 Q474,240 486,198 L542,0 L457,0 L403,188 Q393,221 380.5,242.5 Q368,264 352.5,276.5 Q337,289 317,293.5 Q297,298 272,298 L164,298 L164,0 L80,0 L80,685 L315,685 Q416,685 467.5,633 Q519,581 519,496 M302,363 Q322,363 345,368 Q368,373 387.5,387.5 Q407,402 419.5,427 Q432,452 432,492 Q432,526 422,550.5 Q412,575 394,590 Q376,605 352,612 Q328,619 300,619 L164,619 L164,363"/> 
            <glyph glyph-name="S" unicode="&#x53;" horiz-adv-x="523" d=" M290,696 Q333,696 383.5,687.5 Q434,679 478,653 L451,593 Q402,615 361,621.5 Q320,628 286,628 Q226,628 188,597.5 Q150,567 150,504 Q150,476 163,457 Q176,438 198,425.5 Q220,413 247,404.5 Q274,396 303,389 Q340,380 379,368.5 Q418,357 450,335.5 Q482,314 502.5,279 Q523,244 523,188 Q523,137 504.5,100 Q486,63 452.5,39 Q419,15 372.5,3.5 Q326,-8 271,-8 Q217,-8 159,4 Q101,16 50,45 L79,107 Q140,78 187,69 Q234,60 272,60 Q350,60 393.5,87.5 Q437,115 437,188 Q437,219 426,239.5 Q415,260 395,273.5 Q375,287 348,296.5 Q321,306 290,314 Q245,326 204,339 Q163,352 131.5,372 Q100,392 81.5,423 Q63,454 63,502 Q63,548 80,584 Q97,620 127,645 Q157,670 198.5,683 Q240,696 290,696"/> 
            <glyph glyph-name="T" unicode="&#x54;" horiz-adv-x="543" d=" M240,0 L240,618 L20,618 L20,685 L543,685 L543,618 L324,618 L323,0"/> 
            <glyph glyph-name="U" unicode="&#x55;" horiz-adv-x="594" d=" M594,246 Q594,189 578,142 Q562,95 529.5,61.5 Q497,28 448,10 Q399,-8 332,-8 Q195,-8 133.5,59.5 Q72,127 72,246 L72,685 L156,685 L156,245 Q156,151 202,104 Q248,57 333,57 Q418,57 464.5,103.5 Q511,150 511,245 L510,685 L594,685"/> 
            <glyph glyph-name="V" unicode="&#x56;" horiz-adv-x="544" d=" M281,88 L321,228 L456,685 L544,685 L327,0 L227,0 L10,685 L100,685 L237,227 L276,88"/> 
            <glyph glyph-name="W" unicode="&#x57;" horiz-adv-x="827" d=" M406,561 Q398,523 389.5,485 Q381,447 373,409 Q371,398 347.5,296 Q324,194 281,0 L178,0 L10,684 L98,684 Q121,582 144,480.5 Q167,379 191,277 Q200,234 209.5,190 Q219,146 229,103 L234,103 L270,266 Q282,322 294,374 Q306,426 317.5,477 Q329,528 340.5,579 Q352,630 364,684 L454,684 L564,271 Q566,265 572,243 Q578,221 585,194 Q592,167 599,141.5 Q606,116 609,104 L615,104 Q625,149 635,195 Q645,241 654,286 Q676,386 698,485 Q720,584 743,684 L827,684 Q784,499 741.5,327.5 Q699,156 661,0 L561,0 Q534,105 507,203.5 Q480,302 452,410 Q442,448 433,485 Q424,522 413,560"/> 
            <glyph glyph-name="X" unicode="&#x58;" horiz-adv-x="548" d=" M227,356 Q176,438 125,520 Q74,602 22,684 L118,684 Q159,615 199,547 Q239,479 281,410 L446,684 L541,684 Q487,600 434.5,518 Q382,436 329,352 L548,0 L454,0 Q409,74 364.5,147.5 Q320,221 275,296 L101,0 L8,0 L227,356"/> 
            <glyph glyph-name="Y" unicode="&#x59;" horiz-adv-x="525" d=" M220,296 L10,685 L99,685 L193,505 L263,366 L267,366 L343,511 L438,685 L525,685 L309,300 L309,0 L220,0"/> 
            <glyph glyph-name="Z" unicode="&#x5A;" horiz-adv-x="511" d=" M47,685 L493,685 L493,621 L126,69 L511,68 L511,0 L22,0 L22,64 L388,617 L47,617"/> 
            <glyph glyph-name="[" unicode="&#x5B;" horiz-adv-x="225" d=" M54,-160 L54,697 L225,697 L225,643 L128,643 L128,-105 L225,-105 L225,-160"/> 
            <glyph glyph-name="\" unicode="&#x5C;" horiz-adv-x="325" d=" M15,701 L68,701 L325,-28 L270,-28"/> 
            <glyph glyph-name="]" unicode="&#x5D;" horiz-adv-x="203" d=" M33,-160 L33,-105 L130,-105 L130,643 L33,643 L33,697 L203,697 L203,-160"/> 
            <glyph glyph-name="^" unicode="&#x5E;" horiz-adv-x="416" d=" M354,381 L219,618 Q187,560 151,499 Q115,438 83,381 L21,381 Q66,456 108.5,531 Q151,606 196,681 L244,681 L416,381"/> 
            <glyph glyph-name="_" unicode="&#x5F;" horiz-adv-x="500" d=" M0,-132 L0,-85 L500,-85 L500,-132"/> 
            <glyph glyph-name="`" unicode="&#x60;" horiz-adv-x="315" d=" M132,674 L192,731 L315,569 L277,535"/> 
            <glyph glyph-name="a" unicode="&#x61;" horiz-adv-x="502" d=" M227,225 Q177,223 153,200 Q129,177 129,140 Q129,97 150,76 Q171,55 219,55 Q251,55 284.5,71.5 Q318,88 352,119 L352,233 M431,61 L497,61 L502,13 Q484,4 460.5,-1.5 Q437,-7 417,-7 Q388,-7 372,5 Q356,17 354,55 L353,56 Q325,32 299,19 Q273,6 251.5,0 Q230,-6 212.5,-7 Q195,-8 184,-8 Q142,-8 114.5,6 Q87,20 71,41 Q55,62 48.5,86.5 Q42,111 42,132 Q42,196 87.5,234.5 Q133,273 227,279 L352,287 L352,318 Q352,379 330,404 Q308,429 247,429 Q211,429 172,422 Q133,415 96,402 L78,457 Q120,476 170,486 Q220,496 266,496 Q343,496 387,460 Q431,424 431,334"/> 
            <glyph glyph-name="b" unicode="&#x62;" horiz-adv-x="473" d=" M142,457 Q185,481 221.5,490.5 Q258,500 289,500 Q342,500 377.5,480.5 Q413,461 434,426.5 Q455,392 464,344.5 Q473,297 473,242 Q473,191 462.5,145.5 Q452,100 427.5,66.5 Q403,33 362.5,13 Q322,-7 262,-7 Q212,-7 159,4 Q106,15 58,37 L58,711 L140,711 L140,568 L137,461 M273,432 Q238,432 202.5,419.5 Q167,407 140,391 L140,80 Q171,66 201,61.5 Q231,57 257,57 Q288,57 312.5,66 Q337,75 354,96.5 Q371,118 380,153 Q389,188 389,240 Q389,298 380.5,335.5 Q372,373 356.5,394.5 Q341,416 319.5,424 Q298,432 273,432"/> 
            <glyph glyph-name="c" unicode="&#x63;" horiz-adv-x="436" d=" M132,246 Q132,205 139,171 Q146,137 162,111.5 Q178,86 205,72 Q232,58 273,58 Q311,58 344,66 Q377,74 414,89 L436,35 Q404,18 359.5,6 Q315,-6 266,-6 Q205,-6 163,12.5 Q121,31 95.5,64 Q70,97 59,141.5 Q48,186 48,238 Q48,277 57,322.5 Q66,368 90.5,407.5 Q115,447 158.5,473 Q202,499 271,499 Q304,499 339,494.5 Q374,490 412,474 L393,415 Q358,427 330,430 Q302,433 278,433 Q207,433 169.5,382 Q132,331 132,246"/> 
            <glyph glyph-name="d" unicode="&#x64;" horiz-adv-x="463" d=" M383,46 Q381,48 381,48 Q351,23 310.5,8.5 Q270,-6 231,-6 Q178,-6 143,13.5 Q108,33 87,66 Q66,99 57,142.5 Q48,186 48,235 Q48,291 58.5,339 Q69,387 92.5,422.5 Q116,458 154,478.5 Q192,499 246,499 Q260,499 277.5,497 Q295,495 313,490.5 Q331,486 348.5,479.5 Q366,473 381,463 L381,711 L463,711 L463,0 L383,0 M381,399 Q373,405 359,411 Q345,417 328,422.5 Q311,428 292.5,431 Q274,434 258,434 Q232,434 209.5,424.5 Q187,415 169.5,392 Q152,369 142,330.5 Q132,292 132,234 Q132,183 141,149 Q150,115 165.5,94.5 Q181,74 203.5,65.5 Q226,57 253,57 Q268,57 286.5,61.5 Q305,66 323,73.5 Q341,81 356.5,89.5 Q372,98 381,107"/> 
            <glyph glyph-name="e" unicode="&#x65;" horiz-adv-x="459" d=" M264,439 Q229,439 205,426 Q181,413 165.5,391 Q150,369 142.5,340 Q135,311 133,280 L382,280 Q382,315 376,344.5 Q370,374 356.5,395 Q343,416 320.5,427.5 Q298,439 264,439 M262,499 Q311,499 344.5,486 Q378,473 400,452 Q422,431 434,405 Q446,379 451.5,353 Q457,327 458,304 Q459,281 459,266 L459,227 L132,227 Q132,193 138,162 Q144,131 160,107.5 Q176,84 203,70 Q230,56 271,56 Q314,56 349.5,65 Q385,74 427,91 L447,39 Q403,16 358.5,5 Q314,-6 265,-6 Q200,-6 158,14 Q116,34 91.5,67.5 Q67,101 57.5,146.5 Q48,192 48,243 Q48,265 51,292.5 Q54,320 62.5,348 Q71,376 86,403.5 Q101,431 125,452 Q149,473 182.5,486 Q216,499 262,499"/> 
            <glyph glyph-name="f" unicode="&#x66;" horiz-adv-x="366" d=" M106,429 L38,429 L38,473 L107,491 L107,570 Q107,643 146.5,681.5 Q186,720 264,720 Q285,720 312.5,717.5 Q340,715 366,708 L355,649 Q337,652 317,654 Q297,656 281,656 Q234,656 210,637.5 Q186,619 186,571 L186,489 L329,489 L329,429 L186,429 L185,0 L106,0"/> 
            <glyph glyph-name="g" unicode="&#x67;" horiz-adv-x="509" d=" M127,199 Q102,213 82.5,242.5 Q63,272 63,324 Q63,371 80,404.5 Q97,438 125,459 Q153,480 188,490 Q223,500 258,500 Q283,500 306.5,497.5 Q330,495 351,488 L509,488 L509,436 L433,436 L431,431 Q448,413 456.5,385.5 Q465,358 465,328 Q465,288 449.5,257 Q434,226 407,204.5 Q380,183 342.5,172 Q305,161 260,161 L206,161 Q170,161 148.5,154 Q127,147 127,124 Q127,108 141,99.5 Q155,91 178,91 L306,91 Q396,91 444,53 Q492,15 492,-57 Q492,-93 475.5,-122.5 Q459,-152 428,-173 Q397,-194 352.5,-205 Q308,-216 253,-216 Q190,-216 149.5,-204 Q109,-192 85.5,-172 Q62,-152 53,-126.5 Q44,-101 44,-73 Q44,-31 65.5,-1 Q87,29 109,41 Q80,47 64.5,65 Q49,83 49,112 Q49,134 56,148.5 Q63,163 74.5,173 Q86,183 99.5,188 Q113,193 125,196 M183,30 Q173,27 162.5,18 Q152,9 143.5,-3.5 Q135,-16 129.5,-30.5 Q124,-45 124,-59 Q124,-78 129.5,-95.5 Q135,-113 151,-126.5 Q167,-140 194,-148 Q221,-156 265,-156 Q335,-156 372.5,-129.5 Q410,-103 410,-59 Q410,-44 406,-28 Q402,-12 389.5,1 Q377,14 354,22 Q331,30 294,30 M382,328 Q382,347 376.5,367 Q371,387 357,403 Q343,419 320,429 Q297,439 263,439 Q205,439 175.5,410 Q146,381 146,328 Q146,278 175,248.5 Q204,219 253,219 Q281,219 304.5,225.5 Q328,232 345,245.5 Q362,259 372,279.5 Q382,300 382,328"/> 
            <glyph glyph-name="h" unicode="&#x68;" horiz-adv-x="455" d=" M144,445 Q189,468 235.5,483.5 Q282,499 315,499 Q365,499 393,484.5 Q421,470 435,447.5 Q449,425 452,397 Q455,369 455,342 L455,0 L374,0 L374,322 Q374,347 371.5,367.5 Q369,388 360.5,402.5 Q352,417 335,424.5 Q318,432 289,432 Q254,432 213,417 Q172,402 140,384 L140,0 L58,0 L58,711 L139,711 L139,553 L136,449"/> 
            <glyph glyph-name="i" unicode="&#x69;" horiz-adv-x="181" d=" M85,0 L85,488 L166,488 L166,0 M181,616 Q181,595 165,579 Q149,563 126,563 Q105,563 89,579 Q73,595 73,616 Q73,639 89,654.5 Q105,670 126,670 Q149,670 165,654.5 Q181,639 181,616"/> 
            <glyph glyph-name="j" unicode="&#x6A;" horiz-adv-x="190" d=" M94,488 L175,488 Q175,381 175,305.5 Q175,230 175,178.5 Q175,127 175,96 Q175,65 175,47 Q175,29 174.5,20 Q174,11 174,4 Q172,-41 163,-74.5 Q154,-108 133.5,-133.5 Q113,-159 80.5,-179 Q48,-199 0,-217 Q-7,-203 -12.5,-189.5 Q-18,-176 -24,-162 Q12,-141 35,-123.5 Q58,-106 71,-86.5 Q84,-67 89,-43 Q94,-19 94,13 M83,616 Q83,639 98.5,654.5 Q114,670 136,670 Q158,670 174,654.5 Q190,639 190,616 Q190,594 174,578.5 Q158,563 136,563 Q114,563 98.5,578.5 Q83,594 83,616"/> 
            <glyph glyph-name="k" unicode="&#x6B;" horiz-adv-x="448" d=" M143,286 Q192,337 242,387 Q292,437 341,488 L433,488 Q387,440 339,392 Q291,344 244,296 Q252,285 260.5,275.5 Q269,266 277,255 L448,0 L358,0 Q316,62 276,123.5 Q236,185 195,247 L140,192 L140,0 L58,0 L58,710 L140,710 L140,400 L136,289"/> 
            <glyph glyph-name="l" unicode="&#x6C;" horiz-adv-x="154" d=" M153,0 L73,0 L73,711 L154,711"/> 
            <glyph glyph-name="m" unicode="&#x6D;" horiz-adv-x="750" d=" M668,0 L668,322 Q668,348 664.5,368.5 Q661,389 651.5,403 Q642,417 624.5,424 Q607,431 579,431 Q563,431 544,427.5 Q525,424 506,418.5 Q487,413 469.5,405 Q452,397 438,388 Q442,371 443,353 Q444,335 444,322 L444,0 L363,0 L363,338 Q363,386 341.5,408 Q320,430 284,430 Q248,430 209.5,416.5 Q171,403 139,383 L139,0 L58,0 L58,488 L137,488 L138,444 L142,441 Q183,468 226,482.5 Q269,497 307,497 Q346,497 376,483 Q406,469 425,438 Q443,450 464.5,461 Q486,472 509.5,480.5 Q533,489 556.5,493.5 Q580,498 601,498 Q653,498 682.5,482.5 Q712,467 727,443.5 Q742,420 746,391 Q750,362 750,335 L750,0"/> 
            <glyph glyph-name="n" unicode="&#x6E;" horiz-adv-x="455" d=" M374,0 L374,322 Q374,347 371.5,367.5 Q369,388 360.5,402.5 Q352,417 335,424.5 Q318,432 289,432 Q254,432 213,417 Q172,402 140,384 L140,0 L58,0 L58,488 L138,488 L139,446 L142,444 Q183,470 230,484.5 Q277,499 312,499 Q362,499 390.5,484.5 Q419,470 433.5,447.5 Q448,425 451.5,397 Q455,369 455,342 L455,0"/> 
            <glyph glyph-name="o" unicode="&#x6F;" horiz-adv-x="480" d=" M480,243 Q480,196 469.5,151 Q459,106 433.5,70.5 Q408,35 365,13.5 Q322,-8 258,-8 Q198,-8 157.5,12.5 Q117,33 93,67 Q69,101 58.5,146 Q48,191 48,241 Q48,290 60,336 Q72,382 98,418 Q124,454 166,476 Q208,498 268,498 Q329,498 370,476 Q411,454 435.5,418.5 Q460,383 470,337 Q480,291 480,243 M395,241 Q395,274 390.5,308 Q386,342 372,370.5 Q358,399 333,417 Q308,435 268,435 Q227,435 201,417.5 Q175,400 160,372.5 Q145,345 139,310 Q133,275 133,241 Q133,205 138,171 Q143,137 157.5,111.5 Q172,86 198.5,70.5 Q225,55 268,55 Q308,55 332.5,71.5 Q357,88 371,115 Q385,142 390,175 Q395,208 395,241"/> 
            <glyph glyph-name="p" unicode="&#x70;" horiz-adv-x="472" d=" M143,441 Q173,465 211.5,479.5 Q250,494 289,494 Q341,494 376.5,474.5 Q412,455 433,421.5 Q454,388 463,343.5 Q472,299 472,250 Q472,196 461.5,149 Q451,102 428,67 Q405,32 367.5,11.5 Q330,-9 276,-9 Q262,-9 244.5,-7.5 Q227,-6 208.5,-2.5 Q190,1 172,7.5 Q154,14 139,25 L139,-208 L58,-208 L58,488 L137,488 L138,445 M140,87 Q148,81 162,75 Q176,69 192.5,63.5 Q209,58 227,55 Q245,52 262,52 Q288,52 311,61.5 Q334,71 351.5,94.5 Q369,118 379,156.5 Q389,195 389,252 Q389,303 380,336.5 Q371,370 355,390 Q339,410 316.5,418.5 Q294,427 267,427 Q252,427 233.5,422.5 Q215,418 197,410.5 Q179,403 164,394.5 Q149,386 140,377"/> 
            <glyph glyph-name="q" unicode="&#x71;" horiz-adv-x="463" d=" M375,29 Q333,6 299,-2.5 Q265,-11 236,-11 Q183,-11 147.5,6.5 Q112,24 90,55.5 Q68,87 58.5,130.5 Q49,174 49,226 Q49,280 59.5,329 Q70,378 94.5,415 Q119,452 160.5,473.5 Q202,495 265,495 Q318,495 368.5,483.5 Q419,472 463,452 Q463,286 462.5,121.5 Q462,-43 462,-208 L382,-208 L382,-80 Q382,-54 382,-27.5 Q382,-1 383,25 M248,55 Q283,55 318.5,67.5 Q354,80 381,95 L381,410 Q352,423 323.5,427.5 Q295,432 269,432 Q208,432 171,387.5 Q134,343 132,242 Q132,187 140.5,151 Q149,115 164,93.5 Q179,72 200.5,63.5 Q222,55 248,55"/> 
            <glyph glyph-name="r" unicode="&#x72;" horiz-adv-x="348" d=" M152,419 Q170,435 192,449.5 Q214,464 237,475 Q260,486 282,493 Q304,500 323,500 Q334,500 341,495 Q348,490 348,475 Q348,469 345.5,459 Q343,449 339.5,438.5 Q336,428 331,418 Q326,408 320,401 Q278,396 235.5,390.5 Q193,385 151,380 L151,0 L69,0 L69,488 L149,488 L146,423"/> 
            <glyph glyph-name="s" unicode="&#x73;" horiz-adv-x="406" d=" M65,88 Q112,67 151,61 Q190,55 216,55 Q239,55 259.5,59 Q280,63 295,72 Q310,81 318.5,96 Q327,111 327,133 Q327,152 318.5,165.5 Q310,179 295.5,188.5 Q281,198 262,205 Q243,212 222,219 Q190,230 160.5,241 Q131,252 108,267.5 Q85,283 71,305 Q57,327 57,361 Q57,396 71,422 Q85,448 109,465 Q133,482 165,490 Q197,498 234,498 Q249,498 268,496 Q287,494 306.5,490 Q326,486 345,479.5 Q364,473 380,463 L355,406 Q317,421 288,426.5 Q259,432 233,432 Q214,432 196,428.5 Q178,425 164.5,416.5 Q151,408 142.5,394 Q134,380 134,360 Q134,344 144.5,332.5 Q155,321 171,312 Q187,303 205,297 Q223,291 238,286 Q269,276 299,265.5 Q329,255 353,238.5 Q377,222 391.5,197.5 Q406,173 406,134 Q406,97 391.5,70.5 Q377,44 351.5,27 Q326,10 290.5,2 Q255,-6 213,-6 Q191,-6 167.5,-3.5 Q144,-1 121,3.5 Q98,8 76.5,15.5 Q55,23 39,32"/> 
            <glyph glyph-name="t" unicode="&#x74;" horiz-adv-x="344" d=" M172,612 L172,488 L319,488 L319,429 L171,429 L171,140 Q171,105 184.5,82.5 Q198,60 239,60 Q272,60 331,77 L344,22 Q317,9 284.5,2 Q252,-5 222,-5 Q91,-5 91,115 L91,429 L20,429 L20,472 L95,495 L120,603"/> 
            <glyph glyph-name="u" unicode="&#x75;" horiz-adv-x="445" d=" M199,-11 Q149,-11 121,3 Q93,17 79,39.5 Q65,62 61.5,90 Q58,118 58,145 L58,488 L139,488 L139,165 Q139,139 141.5,119 Q144,99 152.5,85 Q161,71 177.5,63.5 Q194,56 223,56 Q251,56 290.5,71 Q330,86 365,118 L365,488 Q385,488 405,488.5 Q425,489 445,489 L445,0 L366,0 L365,55 L363,57 Q339,36 315,22.5 Q291,9 269.5,1.5 Q248,-6 230,-8.5 Q212,-11 199,-11"/> 
            <glyph glyph-name="v" unicode="&#x76;" horiz-adv-x="454" d=" M9,487 L92,487 Q112,423 133.5,361.5 Q155,300 175,237 Q189,195 202.5,150 Q216,105 230,63 L235,63 Q238,70 243.5,89 Q249,108 256.5,133.5 Q264,159 273.5,189 Q283,219 293,250 L372,487 L454,487 L278,0 L180,0"/> 
            <glyph glyph-name="w" unicode="&#x77;" horiz-adv-x="710" d=" M522,81 L558,230 L628,488 L710,488 L565,0 L476,0 L405,226 L356,399 L351,399 L306,226 L241,0 L152,0 L9,488 L91,488 L160,236 L198,81 L203,81 L244,242 L314,488 L393,488 L474,231 L516,81"/> 
            <glyph glyph-name="x" unicode="&#x78;" horiz-adv-x="427" d=" M336,0 Q306,51 276,102 Q246,153 215,204 Q183,153 153.5,102 Q124,51 92,0 L4,0 L168,255 Q130,313 93.5,371 Q57,429 19,488 L110,488 Q137,443 163,397.5 Q189,352 216,307 Q244,352 270,397.5 Q296,443 324,488 L414,488 Q376,429 338,372 Q300,315 262,257 Q304,192 344.5,128.5 Q385,65 427,0 L336,0"/> 
            <glyph glyph-name="y" unicode="&#x79;" horiz-adv-x="448" d=" M260,155 Q270,188 283,229 Q296,270 309.5,313.5 Q323,357 337,401.5 Q351,446 365,488 L448,488 Q425,418 401,345 Q377,272 352.5,198.5 Q328,125 303.5,52.5 Q279,-20 256,-89 Q238,-147 205,-181 Q172,-215 115,-215 Q104,-214 79.5,-212.5 Q55,-211 10,-198 L23,-141 Q50,-147 67.5,-149.5 Q85,-152 102,-152 Q131,-152 150,-138 Q169,-124 182,-84 L210,3 L171,3 L18,488 L97,488 L197,153 Q207,121 213.5,93 Q220,65 224,51 L229,51"/> 
            <glyph glyph-name="z" unicode="&#x7A;" horiz-adv-x="400" d=" M120,60 L400,60 L400,0 L12,0 L12,51 L285,421 L282,428 L42,428 L42,488 L389,488 L389,435 L117,66"/> 
            <glyph glyph-name="{" unicode="&#x7B;" horiz-adv-x="242" d=" M190,-169 Q156,-169 137,-155.5 Q118,-142 108.5,-122.5 Q99,-103 97,-81.5 Q95,-60 95,-44 L95,167 Q95,182 93,198.5 Q91,215 84,230 Q77,245 64,256.5 Q51,268 29,272 L29,317 Q65,324 80,354.5 Q95,385 95,423 L95,536 Q95,557 96,585.5 Q97,614 105,640 Q113,666 131,684 Q149,702 183,702 L242,702 L242,648 L219,648 Q192,648 180.5,629.5 Q169,611 169,582 L169,420 Q169,400 166.5,380 Q164,360 157.5,343.5 Q151,327 139.5,314.5 Q128,302 109,296 Q131,284 143,269.5 Q155,255 161,236.5 Q167,218 168,194.5 Q169,171 169,141 L169,-50 Q169,-77 177.5,-96 Q186,-115 215,-115 L242,-115 L242,-169"/> 
            <glyph glyph-name="|" unicode="&#x7C;" horiz-adv-x="147" d=" M89,-139 L89,700 L147,700 L147,-139"/> 
            <glyph glyph-name="}" unicode="&#x7D;" horiz-adv-x="237" d=" M24,-169 L24,-115 L51,-115 Q80,-115 88.5,-96 Q97,-77 97,-50 L97,141 Q97,171 98,194.5 Q99,218 105,236.5 Q111,255 123,269.5 Q135,284 157,296 Q138,302 126.5,314.5 Q115,327 108.5,343.5 Q102,360 99.5,380 Q97,400 97,420 L97,582 Q97,611 85.5,629.5 Q74,648 47,648 L24,648 L24,702 L83,702 Q117,702 135,684 Q153,666 161,640 Q169,614 170,585.5 Q171,557 171,536 L171,423 Q171,385 186,354.5 Q201,324 237,317 L237,272 Q215,268 202,256.5 Q189,245 182,230 Q175,215 173,198.5 Q171,182 171,167 L171,-44 Q171,-60 169,-81.5 Q167,-103 157.5,-122.5 Q148,-142 129,-155.5 Q110,-169 76,-169"/> 
            <glyph glyph-name="~" unicode="&#x7E;" horiz-adv-x="498" d=" M385,247 Q355,247 327.5,254.5 Q300,262 274.5,270.5 Q249,279 226,286.5 Q203,294 182,294 L109,247 L75,275 Q92,314 121.5,337 Q151,360 189,360 Q212,360 240,352.5 Q268,345 296.5,336.5 Q325,328 351,320.5 Q377,313 397,313 L465,361 L498,334 Q482,296 453,271.5 Q424,247 385,247"/> 
            <glyph glyph-name="¡" unicode="&#xA1;" horiz-adv-x="165" d=" M141,315 Q143,234 145,153.5 Q147,73 149,-8 Q149,-17 150,-46.5 Q151,-76 151.5,-109.5 Q152,-143 152.5,-172 Q153,-201 153,-210 L72,-210 Q74,-145 75,-81 Q76,-17 78,48 Q80,115 82,181.5 Q84,248 87,315 M165,443 Q165,422 150,407 Q135,392 112,392 Q89,392 74,407 Q59,422 59,443 Q59,465 74.5,480.5 Q90,496 113,496 Q134,496 149.5,480.5 Q165,465 165,443"/> 
            <glyph glyph-name="¢" unicode="&#xA2;" horiz-adv-x="472" d=" M280,-5 Q225,-2 187.5,17.5 Q150,37 127,69.5 Q104,102 94,145 Q84,188 84,238 Q84,275 92,318 Q100,361 121.5,399 Q143,437 181.5,464.5 Q220,492 280,498 L280,590 L325,590 L325,499 Q354,498 384.5,493 Q415,488 448,474 L429,415 Q397,426 372,429 Q347,432 325,433 L325,58 Q358,60 387.5,67.5 Q417,75 450,89 L472,35 Q444,19 405.5,8 Q367,-3 325,-5 L325,-85 L280,-85 M168,246 Q168,209 173.5,177.5 Q179,146 192,121.5 Q205,97 226.5,81 Q248,65 280,60 L280,429 Q225,417 196.5,368.5 Q168,320 168,246"/> 
            <glyph glyph-name="£" unicode="&#xA3;" horiz-adv-x="509" d=" M146,364 L151,471 Q154,513 165.5,550 Q177,587 200.5,614 Q224,641 259.5,656.5 Q295,672 345,672 Q367,672 389.5,669.5 Q412,667 434,662.5 Q456,658 475,652 Q494,646 509,639 L485,578 Q443,596 409.5,600.5 Q376,605 351,605 Q315,605 292,595 Q269,585 255,566.5 Q241,548 235,522.5 Q229,497 227,466 L222,364 L407,364 L407,311 L219,311 L215,230 Q214,206 211,180.5 Q208,155 202,132.5 Q196,110 186.5,91 Q177,72 164,61 L503,61 L503,0 L60,0 L61,60 Q84,70 98.5,89 Q113,108 121.5,131.5 Q130,155 134,181.5 Q138,208 139,232 L143,311 L76,311 L76,364"/> 
            <glyph glyph-name="¤" unicode="&#xA4;" horiz-adv-x="491" d=" M140,306 Q140,278 150.5,254 Q161,230 179,212 Q197,194 221.5,183.5 Q246,173 274,173 Q301,173 325,183.5 Q349,194 367.5,212 Q386,230 396.5,254 Q407,278 407,306 Q407,333 396.5,357.5 Q386,382 368,400 Q350,418 325.5,428.5 Q301,439 274,439 Q246,439 221.5,428.5 Q197,418 179,400 Q161,382 150.5,357.5 Q140,333 140,306 M59,484 L96,522 L160,458 Q210,497 275,497 Q336,497 389,458 L452,522 L491,483 L426,421 Q446,394 455,366 Q464,338 464,307 Q464,275 454,246.5 Q444,218 426,192 L491,132 L452,92 L388,155 Q361,133 332.5,125 Q304,117 275,117 Q245,117 217,125 Q189,133 161,155 L96,91 L58,131 L122,192 Q99,221 91,250 Q83,279 83,305 Q83,335 92,365 Q101,395 122,420"/> 
            <glyph glyph-name="¥" unicode="&#xA5;" horiz-adv-x="513" d=" M70,288 L70,328 L209,328 Q167,413 125.5,496 Q84,579 42,664 L127,664 L215,474 L275,345 L279,345 Q295,377 310,409 Q325,441 340,473 L431,664 L513,664 L341,328 L483,328 L483,288 M483,238 L483,197 L317,197 L317,0 L234,0 L234,197 L70,197 L70,238"/> 
            <glyph glyph-name="¦" unicode="&#xA6;" horiz-adv-x="147" d=" M89,342 L89,700 L147,700 L147,342 M147,243 L147,-139 L89,-139 L89,243"/> 
            <glyph glyph-name="§" unicode="&#xA7;" horiz-adv-x="422" d=" M416,307 Q416,272 401.5,239.5 Q387,207 347,174 Q372,159 386.5,142 Q401,125 409,108.5 Q417,92 419.5,77 Q422,62 422,52 Q422,11 406,-18.5 Q390,-48 362.5,-67.5 Q335,-87 298.5,-96.5 Q262,-106 221,-106 Q171,-106 134,-97.5 Q97,-89 68,-80 L84,-26 Q130,-41 163,-45.5 Q196,-50 222,-50 Q284,-50 315,-24.5 Q346,1 346,45 Q346,80 321.5,101.5 Q297,123 255,143 Q222,158 187.5,172.5 Q153,187 124,206 Q95,225 76.5,251 Q58,277 58,316 Q58,353 76,387 Q94,421 132,448 Q99,471 84,495 Q69,519 69,552 Q69,590 83,618.5 Q97,647 122,666.5 Q147,686 181,695.5 Q215,705 255,705 Q303,705 340,698 Q377,691 403,680 L384,625 Q343,638 311.5,642 Q280,646 254,646 Q209,646 176,625 Q143,604 143,558 Q143,537 158,520.5 Q173,504 196.5,490 Q220,476 248,463.5 Q276,451 302,439 Q323,429 343.5,417 Q364,405 380,389 Q396,373 406,353 Q416,333 416,307 M346,291 Q346,319 330.5,338 Q315,357 291,371 Q267,385 238.5,396.5 Q210,408 183,422 Q158,402 144.5,380.5 Q131,359 131,333 Q131,303 146,284 Q161,265 185,252 Q209,239 239,227.5 Q269,216 298,201 Q321,224 333.5,249 Q346,274 346,291"/> 
            <glyph glyph-name="¨" unicode="&#xA8;" horiz-adv-x="379" d=" M379,603 Q379,584 365,571.5 Q351,559 330,559 Q311,559 299,571.5 Q287,584 287,603 Q287,622 300,634.5 Q313,647 330,647 Q351,647 365,635 Q379,623 379,603 M191,603 Q191,584 178,571.5 Q165,559 145,559 Q125,559 112,571.5 Q99,584 99,603 Q99,622 113,634.5 Q127,647 144,647 Q165,647 178,635 Q191,623 191,603"/> 
            <glyph glyph-name="©" unicode="&#xA9;" horiz-adv-x="785" d=" M785,333 Q785,258 756,191.5 Q727,125 676.5,75.5 Q626,26 559,-2.5 Q492,-31 417,-31 Q341,-31 274.5,-2.5 Q208,26 158,75.5 Q108,125 79,191.5 Q50,258 50,333 Q50,408 79,474 Q108,540 158,589.5 Q208,639 274.5,667.5 Q341,696 417,696 Q492,696 559,667.5 Q626,639 676.5,589.5 Q727,540 756,474 Q785,408 785,333 M741,333 Q741,399 715.5,457.5 Q690,516 646.5,559.5 Q603,603 543.5,628 Q484,653 417,653 Q351,653 292,628 Q233,603 188.5,559.5 Q144,516 118.5,457.5 Q93,399 93,333 Q93,267 118.5,208.5 Q144,150 188.5,106.5 Q233,63 292,38 Q351,13 417,13 Q484,13 543.5,38 Q603,63 646.5,106.5 Q690,150 715.5,208.5 Q741,267 741,333 M276,325 Q276,283 283,247 Q290,211 308,184.5 Q326,158 357,143 Q388,128 435,128 Q445,128 459.5,129 Q474,130 490,132 Q506,134 522,137 Q538,140 552,144 L563,99 Q538,89 498.5,82.5 Q459,76 424,76 Q365,76 325,94 Q285,112 259.5,145 Q234,178 223,223.5 Q212,269 212,325 Q212,364 221.5,409.5 Q231,455 255.5,493 Q280,531 322,556.5 Q364,582 430,582 Q472,582 502,576 Q532,570 553,562 L540,514 Q511,525 484,528 Q457,531 434,531 Q355,531 315.5,476 Q276,421 276,325"/> 
            <glyph glyph-name="ª" unicode="&#xAA;" horiz-adv-x="342" d=" M293,318 L338,318 L342,275 Q328,269 309.5,266 Q291,263 277,263 Q260,263 247,270 Q234,277 229,297 Q195,271 167,266 Q139,261 125,261 Q94,261 73.5,270.5 Q53,280 41,294 Q29,308 24.5,325 Q20,342 20,357 Q20,393 39.5,413 Q59,433 89.5,443 Q120,453 157,455.5 Q194,458 228,459 L228,476 Q228,514 214.5,528 Q201,542 163,542 Q116,542 59,522 Q56,533 51.5,545 Q47,557 43,568 Q74,582 109,589 Q144,596 177,596 Q232,596 262.5,571.5 Q293,547 293,485 M145,311 Q162,311 186,321 Q210,331 228,345 L228,417 Q202,417 177.5,415 Q153,413 133.5,407.5 Q114,402 102,391.5 Q90,381 90,362 Q90,337 103,324 Q116,311 145,311"/> 
            <glyph glyph-name="«" unicode="&#xAB;" horiz-adv-x="388" d=" M60,208 L206,367 L240,341 L139,188 L240,36 L207,11 L60,169 M207,208 L354,367 L388,341 L287,188 L388,36 L355,11 L207,169"/> 
            <glyph glyph-name="¬" unicode="&#xAC;" horiz-adv-x="476" d=" M476,102 L415,102 L415,270 L89,270 L89,328 L476,328"/> 
            <glyph glyph-name="­" unicode="&#xAD;" horiz-adv-x="312" d=" M54,230 L54,298 L312,298 L312,230"/> 
            <glyph glyph-name="®" unicode="&#xAE;" horiz-adv-x="528" d=" M528,471 Q528,421 509,377.5 Q490,334 457,302 Q424,270 380,251 Q336,232 286,232 Q235,232 191,251 Q147,270 114,302 Q81,334 62,377.5 Q43,421 43,471 Q43,521 62,564.5 Q81,608 113.5,640.5 Q146,673 190.5,692 Q235,711 286,711 Q336,711 380,692 Q424,673 457,640.5 Q490,608 509,564.5 Q528,521 528,471 M492,471 Q492,513 476,550.5 Q460,588 432.5,616 Q405,644 367,660.5 Q329,677 286,677 Q243,677 205,660.5 Q167,644 139,616 Q111,588 95,550.5 Q79,513 79,471 Q79,429 95,391.5 Q111,354 139,326.5 Q167,299 204.5,282.5 Q242,266 286,266 Q330,266 368,282.5 Q406,299 433.5,326.5 Q461,354 476.5,391.5 Q492,429 492,471 M348,537 Q348,565 332.5,576.5 Q317,588 297,588 L244,588 L244,486 L296,486 Q316,486 332,496 Q348,506 348,537 M351,328 L295,454 L244,454 L244,328 L200,328 L200,620 L300,620 Q342,620 367,600 Q392,580 392,538 Q392,519 379.5,495.5 Q367,472 338,460 L399,328"/> 
            <glyph glyph-name="¯" unicode="&#xAF;" horiz-adv-x="413" d=" M84,656 L413,656 L413,592 L84,592"/> 
            <glyph glyph-name="°" unicode="&#xB0;" horiz-adv-x="312" d=" M312,538 Q312,510 302,485.5 Q292,461 274,443 Q256,425 231.5,415 Q207,405 179,405 Q148,405 123,415 Q98,425 80.5,443 Q63,461 53.5,485 Q44,509 44,538 Q44,565 54.5,589.5 Q65,614 83.5,632.5 Q102,651 126.5,662 Q151,673 179,673 Q207,673 231.5,662 Q256,651 274,632.5 Q292,614 302,589.5 Q312,565 312,538 M264,537 Q264,574 238.5,599.5 Q213,625 178,625 Q142,625 117.5,599.5 Q93,574 93,537 Q93,502 117.5,477 Q142,452 178,452 Q195,452 210.5,458.5 Q226,465 238,476.5 Q250,488 257,503.5 Q264,519 264,537"/> 
            <glyph glyph-name="±" unicode="&#xB1;" horiz-adv-x="475" d=" M313,268 L313,106 L252,106 L252,268 L89,268 L89,327 L252,327 L252,484 L313,484 L313,327 L475,327 L475,268 M475,53 L475,0 L89,0 L89,53"/> 
            <glyph glyph-name="²" unicode="&#xB2;" horiz-adv-x="319" d=" M302,648 Q302,615 283.5,581.5 Q265,548 237.5,517 Q210,486 178,458 Q146,430 119,408 Q170,408 219.5,407.5 Q269,407 319,407 L319,355 L22,355 L22,400 Q55,425 92,457.5 Q129,490 160.5,524 Q192,558 212.5,589.5 Q233,621 233,644 Q233,676 211,690 Q189,704 153,704 Q138,704 111.5,699 Q85,694 44,671 L18,714 Q60,743 97.5,751.5 Q135,760 161,760 Q224,760 263,732.5 Q302,705 302,648"/> 
            <glyph glyph-name="³" unicode="&#xB3;" horiz-adv-x="323" d=" M210,702 L40,702 L40,754 L303,754 L313,716 Q302,707 291,696.5 Q280,686 265.5,672.5 Q251,659 232.5,642 Q214,625 189,601 Q216,599 240.5,591 Q265,583 283.5,569 Q302,555 312.5,534 Q323,513 323,485 Q323,453 309.5,428 Q296,403 274,386 Q252,369 223,360 Q194,351 163,351 Q122,351 87.5,356.5 Q53,362 22,376 L39,425 Q84,411 112,409 Q140,407 158,407 Q201,407 228,427 Q255,447 255,485 Q255,521 224.5,536.5 Q194,552 149,552 Q127,552 103,549 L90,585 L212,697"/> 
            <glyph glyph-name="´" unicode="&#xB4;" horiz-adv-x="375" d=" M230,535 L194,566 L317,728 L375,674"/> 
            <glyph glyph-name="µ" unicode="&#xB5;" horiz-adv-x="452" d=" M140,1 L140,-208 L58,-208 L58,490 L139,490 L139,164 Q139,114 160,85.5 Q181,57 238,57 Q266,57 300.5,71.5 Q335,86 370,118 L370,490 L452,490 Q452,367 451.5,244.5 Q451,122 451,0 L371,0 L371,55 L368,57 Q342,35 320,22 Q298,9 278.5,2.5 Q259,-4 242,-6 Q225,-8 208,-8 Q188,-8 172.5,-4.5 Q157,-1 146,4"/> 
            <glyph glyph-name="¶" unicode="&#xB6;" horiz-adv-x="431" d=" M225,325 Q186,325 152.5,339 Q119,353 95,377 Q71,401 57,434 Q43,467 43,506 Q43,544 56.5,578 Q70,612 94.5,637.5 Q119,663 152.5,678 Q186,693 225,693 L431,693 L431,-194 L372,-194 L372,634 L304,634 L305,-194 L244,-194 L244,325"/> 
            <glyph glyph-name="·" unicode="&#xB7;" horiz-adv-x="158" d=" M158,286 Q158,263 142,247.5 Q126,232 105,232 Q83,232 67,248 Q51,264 51,286 Q51,309 66.5,324 Q82,339 105,339 Q127,339 142.5,324 Q158,309 158,286"/> 
            <glyph glyph-name="¸" unicode="&#xB8;" horiz-adv-x="335" d=" M288,17 Q273,-2 257,-22.5 Q241,-43 226,-63 Q275,-65 305,-84.5 Q335,-104 335,-142 Q335,-184 291.5,-214 Q248,-244 156,-244 L156,-208 Q210,-203 242,-189 Q274,-175 274,-149 Q274,-136 265,-127.5 Q256,-119 241.5,-115 Q227,-111 209,-109.5 Q191,-108 173,-108 L160,-89 Q185,-57 208.5,-26 Q232,5 257,36 Q265,31 272.5,26.5 Q280,22 288,17"/> 
            <glyph glyph-name="¹" unicode="&#xB9;" horiz-adv-x="219" d=" M152,690 L52,676 L43,720 L161,754 L219,754 L219,355 L152,355"/> 
            <glyph glyph-name="º" unicode="&#xBA;" horiz-adv-x="328" d=" M328,428 Q328,397 320.5,367 Q313,337 295,314 Q277,291 247,276.5 Q217,262 172,262 Q130,262 102,275.5 Q74,289 56.5,312 Q39,335 32,365 Q25,395 25,428 Q25,460 33.5,490.5 Q42,521 60,544.5 Q78,568 107.5,582.5 Q137,597 179,597 Q222,597 250.5,582.5 Q279,568 296.5,544.5 Q314,521 321,490.5 Q328,460 328,428 M261,428 Q261,447 258,468 Q255,489 246,506 Q237,523 221,534.5 Q205,546 179,546 Q153,546 136.5,535 Q120,524 110,507 Q100,490 96.5,469 Q93,448 93,427 Q93,405 96,384.5 Q99,364 108,348.5 Q117,333 134,323.5 Q151,314 179,314 Q204,314 220,324 Q236,334 245,350.5 Q254,367 257.5,387.5 Q261,408 261,428"/> 
            <glyph glyph-name="»" unicode="&#xBB;" horiz-adv-x="379" d=" M379,169 L232,11 L199,36 L299,188 L199,341 L233,367 L379,208 M231,169 L84,11 L51,36 L152,188 L51,341 L85,367 L231,208"/> 
            <glyph glyph-name="¼" unicode="&#xBC;" horiz-adv-x="749" d=" M687,110 L687,-1 L622,-1 L622,110 L419,110 L419,155 L623,399 L687,399 L687,161 L749,161 L749,110 M284,-22 L228,-22 L522,701 L576,701 M199,600 L99,586 L90,630 L208,664 L266,664 L266,265 L199,265 M619,319 L491,161 L623,161 L623,319"/> 
            <glyph glyph-name="½" unicode="&#xBD;" horiz-adv-x="763" d=" M746,293 Q746,260 727.5,226.5 Q709,193 681.5,162 Q654,131 622,103 Q590,75 563,53 Q614,53 663.5,52.5 Q713,52 763,52 L763,0 L466,0 L466,45 Q499,70 536,102.5 Q573,135 604.5,169 Q636,203 656.5,234.5 Q677,266 677,289 Q677,321 655,335 Q633,349 597,349 Q582,349 555.5,344 Q529,339 488,316 L462,359 Q504,388 541.5,396.5 Q579,405 605,405 Q668,405 707,377.5 Q746,350 746,293 M264,-22 L208,-22 L502,701 L556,701 M181,600 L81,586 L72,630 L190,664 L248,664 L248,265 L181,265"/> 
            <glyph glyph-name="¾" unicode="&#xBE;" horiz-adv-x="781" d=" M719,110 L719,-1 L654,-1 L654,110 L451,110 L451,155 L655,399 L719,399 L719,161 L781,161 L781,110 M236,612 L66,612 L66,664 L329,664 L339,626 Q328,617 317,606.5 Q306,596 291.5,582.5 Q277,569 258.5,552 Q240,535 215,511 Q242,509 266.5,501 Q291,493 309.5,479 Q328,465 338.5,444 Q349,423 349,395 Q349,363 335.5,338 Q322,313 300,296 Q278,279 249,270 Q220,261 189,261 Q148,261 113.5,266.5 Q79,272 48,286 L65,335 Q110,321 138,319 Q166,317 184,317 Q227,317 254,337 Q281,357 281,395 Q281,431 250.5,446.5 Q220,462 175,462 Q153,462 129,459 L116,495 L238,607 M312,-22 L256,-22 L550,701 L604,701 M651,319 L523,161 L655,161 L655,319"/> 
            <glyph glyph-name="¿" unicode="&#xBF;" horiz-adv-x="413" d=" M199,33 Q166,7 147.5,-16.5 Q129,-40 129,-73 Q129,-115 159,-133.5 Q189,-152 237,-152 Q268,-152 305,-147.5 Q342,-143 395,-126 L413,-186 Q365,-203 317.5,-211 Q270,-219 232,-219 Q138,-219 90.5,-182.5 Q43,-146 41,-83 Q41,-35 67,2.5 Q93,40 129,69 Q162,95 186,117 Q210,139 225.5,158.5 Q241,178 249,197.5 Q257,217 257,238 Q257,255 254.5,271.5 Q252,288 249,310 L315,319 Q327,260 327,228 Q327,200 318,176.5 Q309,153 292.5,130 Q276,107 252.5,83.5 Q229,60 199,33 M212,443 Q212,465 227.5,480.5 Q243,496 264,496 Q287,496 302.5,480.5 Q318,465 318,443 Q318,422 302.5,407 Q287,392 265,392 Q243,392 227.5,407 Q212,422 212,443"/> 
            <glyph glyph-name="À" unicode="&#xC0;" horiz-adv-x="568" d=" M479,0 Q465,45 451,89.5 Q437,134 423,179 L153,179 Q139,134 125,89.5 Q111,45 97,0 L10,0 Q71,186 128,357 Q185,528 236,685 L344,685 L568,0 M403,244 Q380,320 357,396.5 Q334,473 310,548 L290,615 L287,615 L267,547 Q256,510 245,474.5 Q234,439 223,402.5 Q212,366 200,327 Q188,288 174,244 M146,868 L206,923 L329,762 L290,729"/> 
            <glyph glyph-name="Á" unicode="&#xC1;" horiz-adv-x="568" d=" M479,0 Q465,45 451,89.5 Q437,134 423,179 L153,179 Q139,134 125,89.5 Q111,45 97,0 L10,0 Q71,186 128,357 Q185,528 236,685 L344,685 L568,0 M403,244 Q380,320 357,396.5 Q334,473 310,548 L290,615 L287,615 L267,547 Q256,510 245,474.5 Q234,439 223,402.5 Q212,366 200,327 Q188,288 174,244 M297,729 L259,760 L382,921 L442,868"/> 
            <glyph glyph-name="Â" unicode="&#xC2;" horiz-adv-x="568" d=" M479,0 Q465,45 451,89.5 Q437,134 423,179 L153,179 Q139,134 125,89.5 Q111,45 97,0 L10,0 Q71,186 128,357 Q185,528 236,685 L344,685 L568,0 M403,244 Q380,320 357,396.5 Q334,473 310,548 L290,615 L287,615 L267,547 Q256,510 245,474.5 Q234,439 223,402.5 Q212,366 200,327 Q188,288 174,244 M442,730 L287,819 L133,729 L110,757 L260,895 L315,895 L467,759"/> 
            <glyph glyph-name="Ã" unicode="&#xC3;" horiz-adv-x="568" d=" M479,0 Q465,45 451,89.5 Q437,134 423,179 L153,179 Q139,134 125,89.5 Q111,45 97,0 L10,0 Q71,186 128,357 Q185,528 236,685 L344,685 L568,0 M403,244 Q380,320 357,396.5 Q334,473 310,548 L290,615 L287,615 L267,547 Q256,510 245,474.5 Q234,439 223,402.5 Q212,366 200,327 Q188,288 174,244 M361,762 Q338,762 318,768 Q298,774 280,781.5 Q262,789 246,795 Q230,801 216,801 L159,762 L131,784 Q143,818 166,838.5 Q189,859 218,859 Q236,859 255.5,853 Q275,847 294,839.5 Q313,832 330.5,826 Q348,820 362,820 L419,860 L447,838 Q436,804 413,783 Q390,762 361,762"/> 
            <glyph glyph-name="Ä" unicode="&#xC4;" horiz-adv-x="568" d=" M479,0 Q465,45 451,89.5 Q437,134 423,179 L153,179 Q139,134 125,89.5 Q111,45 97,0 L10,0 Q71,186 128,357 Q185,528 236,685 L344,685 L568,0 M403,244 Q380,320 357,396.5 Q334,473 310,548 L290,615 L287,615 L267,547 Q256,510 245,474.5 Q234,439 223,402.5 Q212,366 200,327 Q188,288 174,244 M240,771 Q240,751 227,739 Q214,727 194,727 Q174,727 161,739 Q148,751 148,771 Q148,789 161.5,802 Q175,815 192,815 Q213,815 226.5,803 Q240,791 240,771 M427,771 Q427,751 413,739 Q399,727 378,727 Q360,727 348,739 Q336,751 336,771 Q336,789 348.5,802 Q361,815 378,815 Q399,815 413,803 Q427,791 427,771"/> 
            <glyph glyph-name="Å" unicode="&#xC5;" horiz-adv-x="568" d=" M479,0 Q465,45 451,89.5 Q437,134 423,179 L153,179 Q139,134 125,89.5 Q111,45 97,0 L10,0 Q71,186 128,357 Q185,528 236,685 L344,685 L568,0 M403,244 Q380,320 357,396.5 Q334,473 310,548 L290,615 L287,615 L267,547 Q256,510 245,474.5 Q234,439 223,402.5 Q212,366 200,327 Q188,288 174,244 M290,706 Q267,706 247,714 Q227,722 212.5,736.5 Q198,751 189.5,770 Q181,789 181,811 Q181,832 189.5,851 Q198,870 212.5,884.5 Q227,899 247,907.5 Q267,916 290,916 Q312,916 331.5,907.5 Q351,899 365.5,885 Q380,871 388,851.5 Q396,832 396,811 Q396,766 365.5,736 Q335,706 290,706 M290,873 Q261,873 243.5,854.5 Q226,836 226,808 Q226,782 243.5,764 Q261,746 290,746 Q317,746 334,764 Q351,782 351,808 Q351,835 334,854 Q317,873 290,873"/> 
            <glyph glyph-name="Æ" unicode="&#xC6;" horiz-adv-x="898" d=" M486,205 L227,205 L100,0 L10,0 L437,684 L882,684 L882,622 L571,622 L571,391 L831,391 L831,330 L571,330 L571,63 L898,63 L898,0 L486,0 M265,270 L486,270 L486,617 L481,617"/> 
            <glyph glyph-name="Ç" unicode="&#xC7;" horiz-adv-x="549" d=" M360,696 Q416,696 459,687.5 Q502,679 533,668 L515,605 Q474,619 437,623.5 Q400,628 368,628 Q312,628 270.5,608 Q229,588 202,550.5 Q175,513 161.5,459 Q148,405 148,338 Q148,279 157.5,228.5 Q167,178 192,140.5 Q217,103 260,81.5 Q303,60 370,60 Q383,60 403,61.5 Q423,63 445,66 Q467,69 490,73.5 Q513,78 533,84 L549,24 Q533,18 512,12.5 Q491,7 468,3 Q445,-1 420.5,-3.5 Q396,-6 374,-7 Q360,-24 346.5,-43 Q333,-62 319,-80 Q368,-82 398,-101.5 Q428,-121 428,-159 Q428,-201 384.5,-231 Q341,-261 249,-261 L249,-225 Q303,-220 335,-206 Q367,-192 367,-166 Q367,-153 358,-144.5 Q349,-136 334.5,-132 Q320,-128 302,-126.5 Q284,-125 266,-125 L253,-106 Q273,-81 291,-56 Q309,-31 329,-7 Q255,-3 203.5,23.5 Q152,50 120,95 Q88,140 74,202 Q60,264 60,338 Q60,375 65.5,415.5 Q71,456 84.5,496 Q98,536 120.5,572 Q143,608 176,635.5 Q209,663 254.5,679.5 Q300,696 360,696"/> 
            <glyph glyph-name="È" unicode="&#xC8;" horiz-adv-x="513" d=" M80,0 L80,684 L497,684 L497,620 L165,620 L165,393 L445,393 L445,331 L165,331 L165,65 L513,65 L513,0 M177,868 L237,923 L360,762 L321,729"/> 
            <glyph glyph-name="É" unicode="&#xC9;" horiz-adv-x="513" d=" M80,0 L80,684 L497,684 L497,620 L165,620 L165,393 L445,393 L445,331 L165,331 L165,65 L513,65 L513,0 M302,729 L264,760 L387,921 L447,868"/> 
            <glyph glyph-name="Ê" unicode="&#xCA;" horiz-adv-x="513" d=" M80,0 L80,684 L497,684 L497,620 L165,620 L165,393 L445,393 L445,331 L165,331 L165,65 L513,65 L513,0 M447,730 L292,819 L138,729 L115,757 L265,895 L320,895 L472,759"/> 
            <glyph glyph-name="Ë" unicode="&#xCB;" horiz-adv-x="513" d=" M80,0 L80,684 L497,684 L497,620 L165,620 L165,393 L445,393 L445,331 L165,331 L165,65 L513,65 L513,0 M437,771 Q437,751 423,739 Q409,727 388,727 Q370,727 358,739 Q346,751 346,771 Q346,789 358.5,802 Q371,815 388,815 Q409,815 423,803 Q437,791 437,771 M250,771 Q250,751 237,739 Q224,727 204,727 Q184,727 171,739 Q158,751 158,771 Q158,789 171.5,802 Q185,815 202,815 Q223,815 236.5,803 Q250,791 250,771"/> 
            <glyph glyph-name="Ì" unicode="&#xCC;" horiz-adv-x="180" d=" M90,0 L90,685 L174,685 L174,0 M-3,868 L57,923 L180,762 L141,729"/> 
            <glyph glyph-name="Í" unicode="&#xCD;" horiz-adv-x="280" d=" M90,0 L90,685 L174,685 L174,0 M135,729 L97,760 L220,921 L280,868"/> 
            <glyph glyph-name="Î" unicode="&#xCE;" horiz-adv-x="311" d=" M90,0 L90,685 L174,685 L174,0 M286,730 L131,819 L-23,729 L-46,757 L104,895 L159,895 L311,759"/> 
            <glyph glyph-name="Ï" unicode="&#xCF;" horiz-adv-x="273" d=" M90,0 L90,685 L174,685 L174,0 M273,771 Q273,751 259,739 Q245,727 224,727 Q206,727 194,739 Q182,751 182,771 Q182,789 194.5,802 Q207,815 224,815 Q245,815 259,803 Q273,791 273,771 M86,771 Q86,751 73,739 Q60,727 40,727 Q20,727 7,739 Q-6,751 -6,771 Q-6,789 7.5,802 Q21,815 38,815 Q59,815 72.5,803 Q86,791 86,771"/> 
            <glyph glyph-name="Ð" unicode="&#xD0;" horiz-adv-x="584" d=" M80,0 L80,329 L18,329 L18,390 L80,390 L80,685 L303,685 Q386,685 440.5,657.5 Q495,630 527,583 Q559,536 571.5,474.5 Q584,413 584,344 Q584,274 570,211.5 Q556,149 522.5,102 Q489,55 433.5,27.5 Q378,0 294,0 M167,620 L167,390 L325,390 L325,329 L167,329 L167,66 L284,66 Q299,66 321,68 Q343,70 366.5,78 Q390,86 413,103 Q436,120 454.5,150 Q473,180 484.5,225.5 Q496,271 496,337 Q496,404 485.5,451 Q475,498 458,529.5 Q441,561 419,579 Q397,597 374,606 Q351,615 329,617.5 Q307,620 289,620"/> 
            <glyph glyph-name="Ñ" unicode="&#xD1;" horiz-adv-x="602" d=" M520,139 L520,684 L602,684 L602,0 L519,0 L255,413 L165,557 Q164,557 163.5,556.5 Q163,556 161,556 L161,0 L80,0 L80,684 L165,684 Q229,586 290.5,490 Q352,394 415,296 L515,139 M410,765 Q387,765 367,771 Q347,777 329,784.5 Q311,792 295,798 Q279,804 265,804 L208,765 L180,787 Q192,821 215,841.5 Q238,862 267,862 Q285,862 304.5,856 Q324,850 343,842.5 Q362,835 379.5,829 Q397,823 411,823 L468,863 L496,841 Q485,807 462,786 Q439,765 410,765"/> 
            <glyph glyph-name="Ò" unicode="&#xD2;" horiz-adv-x="638" d=" M638,340 Q638,266 620,202 Q602,138 566.5,91.5 Q531,45 477.5,18.5 Q424,-8 354,-8 Q274,-8 218.5,16.5 Q163,41 127.5,86 Q92,131 76,194.5 Q60,258 60,337 Q60,408 75.5,473 Q91,538 125.5,587.5 Q160,637 216.5,666 Q273,695 354,695 Q436,695 491,665.5 Q546,636 578.5,587 Q611,538 624.5,474 Q638,410 638,340 M549,337 Q549,388 541.5,440 Q534,492 513,534.5 Q492,577 454,604 Q416,631 354,631 Q292,631 252,606 Q212,581 189,539.5 Q166,498 157,445 Q148,392 148,336 Q148,199 196,128 Q244,57 354,57 Q404,57 441,79 Q478,101 502,139 Q526,177 537.5,228 Q549,279 549,337 M213,868 L273,923 L396,762 L357,729"/> 
            <glyph glyph-name="Ó" unicode="&#xD3;" horiz-adv-x="638" d=" M638,340 Q638,266 620,202 Q602,138 566.5,91.5 Q531,45 477.5,18.5 Q424,-8 354,-8 Q274,-8 218.5,16.5 Q163,41 127.5,86 Q92,131 76,194.5 Q60,258 60,337 Q60,408 75.5,473 Q91,538 125.5,587.5 Q160,637 216.5,666 Q273,695 354,695 Q436,695 491,665.5 Q546,636 578.5,587 Q611,538 624.5,474 Q638,410 638,340 M549,337 Q549,388 541.5,440 Q534,492 513,534.5 Q492,577 454,604 Q416,631 354,631 Q292,631 252,606 Q212,581 189,539.5 Q166,498 157,445 Q148,392 148,336 Q148,199 196,128 Q244,57 354,57 Q404,57 441,79 Q478,101 502,139 Q526,177 537.5,228 Q549,279 549,337 M341,729 L303,760 L426,921 L486,868"/> 
            <glyph glyph-name="Ô" unicode="&#xD4;" horiz-adv-x="638" d=" M638,340 Q638,266 620,202 Q602,138 566.5,91.5 Q531,45 477.5,18.5 Q424,-8 354,-8 Q274,-8 218.5,16.5 Q163,41 127.5,86 Q92,131 76,194.5 Q60,258 60,337 Q60,408 75.5,473 Q91,538 125.5,587.5 Q160,637 216.5,666 Q273,695 354,695 Q436,695 491,665.5 Q546,636 578.5,587 Q611,538 624.5,474 Q638,410 638,340 M549,337 Q549,388 541.5,440 Q534,492 513,534.5 Q492,577 454,604 Q416,631 354,631 Q292,631 252,606 Q212,581 189,539.5 Q166,498 157,445 Q148,392 148,336 Q148,199 196,128 Q244,57 354,57 Q404,57 441,79 Q478,101 502,139 Q526,177 537.5,228 Q549,279 549,337 M511,730 L356,819 L202,729 L179,757 L329,895 L384,895 L536,759"/> 
            <glyph glyph-name="Õ" unicode="&#xD5;" horiz-adv-x="638" d=" M638,340 Q638,266 620,202 Q602,138 566.5,91.5 Q531,45 477.5,18.5 Q424,-8 354,-8 Q274,-8 218.5,16.5 Q163,41 127.5,86 Q92,131 76,194.5 Q60,258 60,337 Q60,408 75.5,473 Q91,538 125.5,587.5 Q160,637 216.5,666 Q273,695 354,695 Q436,695 491,665.5 Q546,636 578.5,587 Q611,538 624.5,474 Q638,410 638,340 M549,337 Q549,388 541.5,440 Q534,492 513,534.5 Q492,577 454,604 Q416,631 354,631 Q292,631 252,606 Q212,581 189,539.5 Q166,498 157,445 Q148,392 148,336 Q148,199 196,128 Q244,57 354,57 Q404,57 441,79 Q478,101 502,139 Q526,177 537.5,228 Q549,279 549,337 M428,767 Q405,767 385,773 Q365,779 347,786.5 Q329,794 313,800 Q297,806 283,806 L226,767 L198,789 Q210,823 233,843.5 Q256,864 285,864 Q303,864 322.5,858 Q342,852 361,844.5 Q380,837 397.5,831 Q415,825 429,825 L486,865 L514,843 Q503,809 480,788 Q457,767 428,767"/> 
            <glyph glyph-name="Ö" unicode="&#xD6;" horiz-adv-x="638" d=" M638,340 Q638,266 620,202 Q602,138 566.5,91.5 Q531,45 477.5,18.5 Q424,-8 354,-8 Q274,-8 218.5,16.5 Q163,41 127.5,86 Q92,131 76,194.5 Q60,258 60,337 Q60,408 75.5,473 Q91,538 125.5,587.5 Q160,637 216.5,666 Q273,695 354,695 Q436,695 491,665.5 Q546,636 578.5,587 Q611,538 624.5,474 Q638,410 638,340 M549,337 Q549,388 541.5,440 Q534,492 513,534.5 Q492,577 454,604 Q416,631 354,631 Q292,631 252,606 Q212,581 189,539.5 Q166,498 157,445 Q148,392 148,336 Q148,199 196,128 Q244,57 354,57 Q404,57 441,79 Q478,101 502,139 Q526,177 537.5,228 Q549,279 549,337 M492,781 Q492,761 478,749 Q464,737 443,737 Q425,737 413,749 Q401,761 401,781 Q401,799 413.5,812 Q426,825 443,825 Q464,825 478,813 Q492,801 492,781 M305,781 Q305,761 292,749 Q279,737 259,737 Q239,737 226,749 Q213,761 213,781 Q213,799 226.5,812 Q240,825 257,825 Q278,825 291.5,813 Q305,801 305,781"/> 
            <glyph glyph-name="×" unicode="&#xD7;" horiz-adv-x="452" d=" M283,247 L152,116 L109,160 L240,290 L111,419 L153,460 L281,331 L407,458 L450,415 L324,288 L452,161 L410,119"/> 
            <glyph glyph-name="Ø" unicode="&#xD8;" horiz-adv-x="631" d=" M628,340 Q628,266 610,202 Q592,138 556.5,91.5 Q521,45 467.5,18.5 Q414,-8 344,-8 Q277,-8 227.5,9 Q178,26 143,58 L95,-6 L47,-6 L117,86 Q82,131 66,194.5 Q50,258 50,337 Q50,408 65.5,473 Q81,538 115.5,587.5 Q150,637 206.5,666 Q263,695 344,695 Q407,695 452.5,678 Q498,661 531,630 L581,697 L631,697 L558,602 Q596,551 612,483 Q628,415 628,340 M539,337 Q539,387 531.5,438.5 Q524,490 502,532 L192,119 Q242,57 344,57 Q394,57 431,79 Q468,101 492,139 Q516,177 527.5,228 Q539,279 539,337 M138,336 Q138,278 146,233.5 Q154,189 172,156 L482,568 Q459,597 425.5,614 Q392,631 344,631 Q282,631 242,606 Q202,581 179,539.5 Q156,498 147,445 Q138,392 138,336"/> 
            <glyph glyph-name="Ù" unicode="&#xD9;" horiz-adv-x="594" d=" M594,246 Q594,189 578,142 Q562,95 529.5,61.5 Q497,28 448,10 Q399,-8 332,-8 Q195,-8 133.5,59.5 Q72,127 72,246 L72,685 L156,685 L156,245 Q156,151 202,104 Q248,57 333,57 Q418,57 464.5,103.5 Q511,150 511,245 L510,685 L594,685 M209,868 L269,923 L392,762 L353,729"/> 
            <glyph glyph-name="Ú" unicode="&#xDA;" horiz-adv-x="594" d=" M594,246 Q594,189 578,142 Q562,95 529.5,61.5 Q497,28 448,10 Q399,-8 332,-8 Q195,-8 133.5,59.5 Q72,127 72,246 L72,685 L156,685 L156,245 Q156,151 202,104 Q248,57 333,57 Q418,57 464.5,103.5 Q511,150 511,245 L510,685 L594,685 M319,729 L281,760 L404,921 L464,868"/> 
            <glyph glyph-name="Û" unicode="&#xDB;" horiz-adv-x="594" d=" M594,246 Q594,189 578,142 Q562,95 529.5,61.5 Q497,28 448,10 Q399,-8 332,-8 Q195,-8 133.5,59.5 Q72,127 72,246 L72,685 L156,685 L156,245 Q156,151 202,104 Q248,57 333,57 Q418,57 464.5,103.5 Q511,150 511,245 L510,685 L594,685 M491,730 L330,817 L170,729 L146,756 L302,892 L359,892 L517,758"/> 
            <glyph glyph-name="Ü" unicode="&#xDC;" horiz-adv-x="594" d=" M594,246 Q594,189 578,142 Q562,95 529.5,61.5 Q497,28 448,10 Q399,-8 332,-8 Q195,-8 133.5,59.5 Q72,127 72,246 L72,685 L156,685 L156,245 Q156,151 202,104 Q248,57 333,57 Q418,57 464.5,103.5 Q511,150 511,245 L510,685 L594,685 M473,777 Q473,757 459,745 Q445,733 424,733 Q406,733 394,745 Q382,757 382,777 Q382,795 394.5,808 Q407,821 424,821 Q445,821 459,809 Q473,797 473,777 M286,777 Q286,757 273,745 Q260,733 240,733 Q220,733 207,745 Q194,757 194,777 Q194,795 207.5,808 Q221,821 238,821 Q259,821 272.5,809 Q286,797 286,777"/> 
            <glyph glyph-name="Ý" unicode="&#xDD;" horiz-adv-x="525" d=" M220,296 L10,685 L99,685 L193,505 L263,366 L267,366 L343,511 L438,685 L525,685 L309,300 L309,0 L220,0 M261,711 L223,742 L346,903 L406,850"/> 
            <glyph glyph-name="Þ" unicode="&#xDE;" horiz-adv-x="517" d=" M517,343 Q517,312 507.5,276 Q498,240 474.5,209.5 Q451,179 411.5,158.5 Q372,138 313,138 L165,138 L165,0 L80,0 L80,685 L165,685 L165,542 L304,542 Q351,542 390,529.5 Q429,517 457.5,492 Q486,467 501.5,429.5 Q517,392 517,343 M165,477 L165,202 L301,202 Q325,202 348,208.5 Q371,215 389.5,231 Q408,247 419,273.5 Q430,300 430,340 Q430,375 420,401 Q410,427 392,444 Q374,461 349.5,469 Q325,477 297,477"/> 
            <glyph glyph-name="ß" unicode="&#xDF;" horiz-adv-x="552" d=" M470,116 Q470,141 461.5,159.5 Q453,178 440,193 Q427,208 411,221 Q395,234 380,248 Q362,265 343,283 Q324,301 308.5,319.5 Q293,338 283.5,358.5 Q274,379 274,400 Q274,428 290.5,451 Q307,474 326.5,495 Q346,516 362.5,536 Q379,556 379,580 Q379,586 376.5,599 Q374,612 364.5,625 Q355,638 335,648 Q315,658 281,658 Q254,658 234,648.5 Q214,639 201.5,623.5 Q189,608 183,587 Q177,566 177,542 L177,0 L96,0 L96,384 L25,384 L25,438 L96,438 L96,546 Q96,569 104,599 Q112,629 133,656 Q154,683 190.5,702 Q227,721 285,721 Q336,721 369.5,708 Q403,695 422.5,675.5 Q442,656 450,633.5 Q458,611 458,593 Q458,556 441.5,529.5 Q425,503 405.5,482 Q386,461 370,443 Q354,425 354,404 Q354,378 376.5,352 Q399,326 434,299 Q456,282 477.5,264.5 Q499,247 515.5,226 Q532,205 542,178.5 Q552,152 552,117 Q550,92 540.5,68.5 Q531,45 511,27 Q491,9 460,-2 Q429,-13 385,-13 Q348,-13 309,-6 Q270,1 243,12 L261,72 Q313,54 340,50.5 Q367,47 383,47 Q425,47 447.5,66 Q470,85 470,116"/> 
            <glyph glyph-name="à" unicode="&#xE0;" horiz-adv-x="502" d=" M227,225 Q177,223 153,200 Q129,177 129,140 Q129,97 150,76 Q171,55 219,55 Q251,55 284.5,71.5 Q318,88 352,119 L352,233 M431,61 L497,61 L502,13 Q484,4 460.5,-1.5 Q437,-7 417,-7 Q388,-7 372,5 Q356,17 354,55 L353,56 Q325,32 299,19 Q273,6 251.5,0 Q230,-6 212.5,-7 Q195,-8 184,-8 Q142,-8 114.5,6 Q87,20 71,41 Q55,62 48.5,86.5 Q42,111 42,132 Q42,196 87.5,234.5 Q133,273 227,279 L352,287 L352,318 Q352,379 330,404 Q308,429 247,429 Q211,429 172,422 Q133,415 96,402 L78,457 Q120,476 170,486 Q220,496 266,496 Q343,496 387,460 Q431,424 431,334 M131,674 L191,731 L314,569 L276,535"/> 
            <glyph glyph-name="á" unicode="&#xE1;" horiz-adv-x="502" d=" M227,225 Q177,223 153,200 Q129,177 129,140 Q129,97 150,76 Q171,55 219,55 Q251,55 284.5,71.5 Q318,88 352,119 L352,233 M431,61 L497,61 L502,13 Q484,4 460.5,-1.5 Q437,-7 417,-7 Q388,-7 372,5 Q356,17 354,55 L353,56 Q325,32 299,19 Q273,6 251.5,0 Q230,-6 212.5,-7 Q195,-8 184,-8 Q142,-8 114.5,6 Q87,20 71,41 Q55,62 48.5,86.5 Q42,111 42,132 Q42,196 87.5,234.5 Q133,273 227,279 L352,287 L352,318 Q352,379 330,404 Q308,429 247,429 Q211,429 172,422 Q133,415 96,402 L78,457 Q120,476 170,486 Q220,496 266,496 Q343,496 387,460 Q431,424 431,334 M240,535 L204,566 L327,728 L385,674"/> 
            <glyph glyph-name="â" unicode="&#xE2;" horiz-adv-x="502" d=" M227,225 Q177,223 153,200 Q129,177 129,140 Q129,97 150,76 Q171,55 219,55 Q251,55 284.5,71.5 Q318,88 352,119 L352,233 M431,61 L497,61 L502,13 Q484,4 460.5,-1.5 Q437,-7 417,-7 Q388,-7 372,5 Q356,17 354,55 L353,56 Q325,32 299,19 Q273,6 251.5,0 Q230,-6 212.5,-7 Q195,-8 184,-8 Q142,-8 114.5,6 Q87,20 71,41 Q55,62 48.5,86.5 Q42,111 42,132 Q42,196 87.5,234.5 Q133,273 227,279 L352,287 L352,318 Q352,379 330,404 Q308,429 247,429 Q211,429 172,422 Q133,415 96,402 L78,457 Q120,476 170,486 Q220,496 266,496 Q343,496 387,460 Q431,424 431,334 M405,532 L250,625 L96,531 L73,559 L223,702 L278,702 L430,561"/> 
            <glyph glyph-name="ã" unicode="&#xE3;" horiz-adv-x="502" d=" M227,225 Q177,223 153,200 Q129,177 129,140 Q129,97 150,76 Q171,55 219,55 Q251,55 284.5,71.5 Q318,88 352,119 L352,233 M431,61 L497,61 L502,13 Q484,4 460.5,-1.5 Q437,-7 417,-7 Q388,-7 372,5 Q356,17 354,55 L353,56 Q325,32 299,19 Q273,6 251.5,0 Q230,-6 212.5,-7 Q195,-8 184,-8 Q142,-8 114.5,6 Q87,20 71,41 Q55,62 48.5,86.5 Q42,111 42,132 Q42,196 87.5,234.5 Q133,273 227,279 L352,287 L352,318 Q352,379 330,404 Q308,429 247,429 Q211,429 172,422 Q133,415 96,402 L78,457 Q120,476 170,486 Q220,496 266,496 Q343,496 387,460 Q431,424 431,334 M326,573 Q303,573 283,579 Q263,585 245,592.5 Q227,600 211,606 Q195,612 181,612 L124,573 L96,595 Q108,629 131,649.5 Q154,670 183,670 Q201,670 220.5,664 Q240,658 259,650.5 Q278,643 295.5,637 Q313,631 327,631 L384,671 L412,649 Q401,615 378,594 Q355,573 326,573"/> 
            <glyph glyph-name="ä" unicode="&#xE4;" horiz-adv-x="502" d=" M227,225 Q177,223 153,200 Q129,177 129,140 Q129,97 150,76 Q171,55 219,55 Q251,55 284.5,71.5 Q318,88 352,119 L352,233 M431,61 L497,61 L502,13 Q484,4 460.5,-1.5 Q437,-7 417,-7 Q388,-7 372,5 Q356,17 354,55 L353,56 Q325,32 299,19 Q273,6 251.5,0 Q230,-6 212.5,-7 Q195,-8 184,-8 Q142,-8 114.5,6 Q87,20 71,41 Q55,62 48.5,86.5 Q42,111 42,132 Q42,196 87.5,234.5 Q133,273 227,279 L352,287 L352,318 Q352,379 330,404 Q308,429 247,429 Q211,429 172,422 Q133,415 96,402 L78,457 Q120,476 170,486 Q220,496 266,496 Q343,496 387,460 Q431,424 431,334 M397,603 Q397,584 383,571.5 Q369,559 348,559 Q329,559 317,571.5 Q305,584 305,603 Q305,622 318,634.5 Q331,647 348,647 Q369,647 383,635 Q397,623 397,603 M209,603 Q209,584 196,571.5 Q183,559 163,559 Q143,559 130,571.5 Q117,584 117,603 Q117,622 131,634.5 Q145,647 162,647 Q183,647 196,635 Q209,623 209,603"/> 
            <glyph glyph-name="å" unicode="&#xE5;" horiz-adv-x="502" d=" M227,225 Q177,223 153,200 Q129,177 129,140 Q129,97 150,76 Q171,55 219,55 Q251,55 284.5,71.5 Q318,88 352,119 L352,233 M431,61 L497,61 L502,13 Q484,4 460.5,-1.5 Q437,-7 417,-7 Q388,-7 372,5 Q356,17 354,55 L353,56 Q325,32 299,19 Q273,6 251.5,0 Q230,-6 212.5,-7 Q195,-8 184,-8 Q142,-8 114.5,6 Q87,20 71,41 Q55,62 48.5,86.5 Q42,111 42,132 Q42,196 87.5,234.5 Q133,273 227,279 L352,287 L352,318 Q352,379 330,404 Q308,429 247,429 Q211,429 172,422 Q133,415 96,402 L78,457 Q120,476 170,486 Q220,496 266,496 Q343,496 387,460 Q431,424 431,334 M264,551 Q241,551 221,559 Q201,567 186.5,581.5 Q172,596 163.5,615 Q155,634 155,656 Q155,677 163.5,696 Q172,715 186.5,729.5 Q201,744 221,752.5 Q241,761 264,761 Q286,761 305.5,752.5 Q325,744 339.5,730 Q354,716 362,696.5 Q370,677 370,656 Q370,611 339.5,581 Q309,551 264,551 M264,718 Q235,718 217.5,699.5 Q200,681 200,653 Q200,627 217.5,609 Q235,591 264,591 Q291,591 308,609 Q325,627 325,653 Q325,680 308,699 Q291,718 264,718"/> 
            <glyph glyph-name="æ" unicode="&#xE6;" horiz-adv-x="758" d=" M565,499 Q612,499 645,486 Q678,473 699,452 Q720,431 732,405 Q744,379 750,353 Q756,327 757,304 Q758,281 758,266 L758,227 L434,227 Q434,193 440,162 Q446,131 461.5,108 Q477,85 504,71 Q531,57 572,57 Q615,57 649.5,65.5 Q684,74 726,91 L745,39 Q702,16 658,5 Q614,-6 566,-6 Q498,-6 457.5,14 Q417,34 393,69 Q355,40 321.5,24.5 Q288,9 260.5,1.5 Q233,-6 212,-7 Q191,-8 178,-8 Q134,-8 106,6 Q78,20 62,41 Q46,62 39.5,86.5 Q33,111 33,132 Q33,195 79,235.5 Q125,276 210,277 L353,278 L353,319 Q353,382 325.5,406 Q298,430 238,430 Q200,430 161,423 Q122,416 86,403 L68,458 Q110,477 159.5,487 Q209,497 255,497 Q306,497 346.5,479 Q387,461 405,419 Q428,454 466.5,476.5 Q505,499 565,499 M211,52 Q224,52 244.5,56 Q265,60 287,68 Q309,76 331,87.5 Q353,99 370,114 Q361,139 357,167 Q353,195 352,227 L223,227 Q172,227 146,203.5 Q120,180 120,141 Q120,97 141.5,74.5 Q163,52 211,52 M565,436 Q530,436 506.5,423 Q483,410 468,388 Q453,366 445.5,337.5 Q438,309 436,278 L681,278 Q681,313 675.5,342 Q670,371 656.5,392 Q643,413 620.5,424.5 Q598,436 565,436"/> 
            <glyph glyph-name="ç" unicode="&#xE7;" horiz-adv-x="436" d=" M132,246 Q132,205 139,171 Q146,137 162,111.5 Q178,86 205,72 Q232,58 273,58 Q311,58 344,66 Q377,74 414,89 L436,35 Q405,18 361.5,6.5 Q318,-5 270,-6 L227,-63 Q276,-65 306,-84.5 Q336,-104 336,-142 Q336,-184 292.5,-214 Q249,-244 157,-244 L157,-208 Q211,-203 243,-189 Q275,-175 275,-149 Q275,-136 266,-127.5 Q257,-119 242.5,-115 Q228,-111 210,-109.5 Q192,-108 174,-108 L161,-89 L226,-4 Q176,2 142,22.5 Q108,43 87,75 Q66,107 57,148.5 Q48,190 48,238 Q48,277 57,322.5 Q66,368 90.5,407.5 Q115,447 158.5,473 Q202,499 271,499 Q304,499 339,494.5 Q374,490 412,474 L393,415 Q358,427 330,430 Q302,433 278,433 Q207,433 169.5,382 Q132,331 132,246"/> 
            <glyph glyph-name="è" unicode="&#xE8;" horiz-adv-x="459" d=" M264,439 Q229,439 205,426 Q181,413 165.5,391 Q150,369 142.5,340 Q135,311 133,280 L382,280 Q382,315 376,344.5 Q370,374 356.5,395 Q343,416 320.5,427.5 Q298,439 264,439 M262,499 Q311,499 344.5,486 Q378,473 400,452 Q422,431 434,405 Q446,379 451.5,353 Q457,327 458,304 Q459,281 459,266 L459,227 L132,227 Q132,193 138,162 Q144,131 160,107.5 Q176,84 203,70 Q230,56 271,56 Q314,56 349.5,65 Q385,74 427,91 L447,39 Q403,16 358.5,5 Q314,-6 265,-6 Q200,-6 158,14 Q116,34 91.5,67.5 Q67,101 57.5,146.5 Q48,192 48,243 Q48,265 51,292.5 Q54,320 62.5,348 Q71,376 86,403.5 Q101,431 125,452 Q149,473 182.5,486 Q216,499 262,499 M130,674 L190,731 L313,569 L275,535"/> 
            <glyph glyph-name="é" unicode="&#xE9;" horiz-adv-x="459" d=" M264,439 Q229,439 205,426 Q181,413 165.5,391 Q150,369 142.5,340 Q135,311 133,280 L382,280 Q382,315 376,344.5 Q370,374 356.5,395 Q343,416 320.5,427.5 Q298,439 264,439 M262,499 Q311,499 344.5,486 Q378,473 400,452 Q422,431 434,405 Q446,379 451.5,353 Q457,327 458,304 Q459,281 459,266 L459,227 L132,227 Q132,193 138,162 Q144,131 160,107.5 Q176,84 203,70 Q230,56 271,56 Q314,56 349.5,65 Q385,74 427,91 L447,39 Q403,16 358.5,5 Q314,-6 265,-6 Q200,-6 158,14 Q116,34 91.5,67.5 Q67,101 57.5,146.5 Q48,192 48,243 Q48,265 51,292.5 Q54,320 62.5,348 Q71,376 86,403.5 Q101,431 125,452 Q149,473 182.5,486 Q216,499 262,499 M249,535 L213,566 L336,728 L394,674"/> 
            <glyph glyph-name="ê" unicode="&#xEA;" horiz-adv-x="459" d=" M264,439 Q229,439 205,426 Q181,413 165.5,391 Q150,369 142.5,340 Q135,311 133,280 L382,280 Q382,315 376,344.5 Q370,374 356.5,395 Q343,416 320.5,427.5 Q298,439 264,439 M262,499 Q311,499 344.5,486 Q378,473 400,452 Q422,431 434,405 Q446,379 451.5,353 Q457,327 458,304 Q459,281 459,266 L459,227 L132,227 Q132,193 138,162 Q144,131 160,107.5 Q176,84 203,70 Q230,56 271,56 Q314,56 349.5,65 Q385,74 427,91 L447,39 Q403,16 358.5,5 Q314,-6 265,-6 Q200,-6 158,14 Q116,34 91.5,67.5 Q67,101 57.5,146.5 Q48,192 48,243 Q48,265 51,292.5 Q54,320 62.5,348 Q71,376 86,403.5 Q101,431 125,452 Q149,473 182.5,486 Q216,499 262,499 M422,532 L267,625 L113,531 L90,559 L240,702 L295,702 L447,561"/> 
            <glyph glyph-name="ë" unicode="&#xEB;" horiz-adv-x="459" d=" M264,439 Q229,439 205,426 Q181,413 165.5,391 Q150,369 142.5,340 Q135,311 133,280 L382,280 Q382,315 376,344.5 Q370,374 356.5,395 Q343,416 320.5,427.5 Q298,439 264,439 M262,499 Q311,499 344.5,486 Q378,473 400,452 Q422,431 434,405 Q446,379 451.5,353 Q457,327 458,304 Q459,281 459,266 L459,227 L132,227 Q132,193 138,162 Q144,131 160,107.5 Q176,84 203,70 Q230,56 271,56 Q314,56 349.5,65 Q385,74 427,91 L447,39 Q403,16 358.5,5 Q314,-6 265,-6 Q200,-6 158,14 Q116,34 91.5,67.5 Q67,101 57.5,146.5 Q48,192 48,243 Q48,265 51,292.5 Q54,320 62.5,348 Q71,376 86,403.5 Q101,431 125,452 Q149,473 182.5,486 Q216,499 262,499 M409,603 Q409,584 395,571.5 Q381,559 360,559 Q341,559 329,571.5 Q317,584 317,603 Q317,622 330,634.5 Q343,647 360,647 Q381,647 395,635 Q409,623 409,603 M221,603 Q221,584 208,571.5 Q195,559 175,559 Q155,559 142,571.5 Q129,584 129,603 Q129,622 143,634.5 Q157,647 174,647 Q195,647 208,635 Q221,623 221,603"/> 
            <glyph glyph-name="ì" unicode="&#xEC;" horiz-adv-x="177" d=" M85,0 L85,488 L166,488 L166,0 M-6,674 L54,731 L177,569 L139,535"/> 
            <glyph glyph-name="í" unicode="&#xED;" horiz-adv-x="274" d=" M85,0 L85,488 L166,488 L166,0 M129,535 L93,566 L216,728 L274,674"/> 
            <glyph glyph-name="î" unicode="&#xEE;" horiz-adv-x="314" d=" M97,0 L97,488 L178,488 L178,0 M289,532 L134,625 L-20,531 L-43,559 L107,702 L162,702 L314,561"/> 
            <glyph glyph-name="ï" unicode="&#xEF;" horiz-adv-x="264" d=" M85,0 L85,488 L166,488 L166,0 M264,603 Q264,584 250,571.5 Q236,559 215,559 Q196,559 184,571.5 Q172,584 172,603 Q172,622 185,634.5 Q198,647 215,647 Q236,647 250,635 Q264,623 264,603 M76,603 Q76,584 63,571.5 Q50,559 30,559 Q10,559 -3,571.5 Q-16,584 -16,603 Q-16,622 -2,634.5 Q12,647 29,647 Q50,647 63,635 Q76,623 76,603"/> 
            <glyph glyph-name="ð" unicode="&#xF0;" horiz-adv-x="473" d=" M412,692 L436,659 L350,602 Q412,532 442.5,444.5 Q473,357 471,258 Q471,215 461,168 Q451,121 426.5,82 Q402,43 359,17.5 Q316,-8 250,-8 Q186,-8 145.5,13 Q105,34 82,66.5 Q59,99 50.5,138.5 Q42,178 42,214 Q42,259 55,301 Q68,343 94.5,376 Q121,409 160,429 Q199,449 250,449 Q279,449 310.5,443 Q342,437 373,420 Q344,504 295,564 L203,502 L179,535 L267,594 Q244,618 218,639 Q192,660 164,678 L191,724 Q263,687 321,631 M256,388 Q219,388 193.5,372 Q168,356 152,331.5 Q136,307 129,276.5 Q122,246 122,217 Q122,191 126.5,162.5 Q131,134 145,110 Q159,86 185,70.5 Q211,55 255,55 Q298,55 325,74.5 Q352,94 367,123.5 Q382,153 387,186.5 Q392,220 392,247 Q392,275 389,298.5 Q386,322 380,351 Q345,374 313,381 Q281,388 256,388"/> 
            <glyph glyph-name="ñ" unicode="&#xF1;" horiz-adv-x="455" d=" M374,0 L374,322 Q374,347 371.5,367.5 Q369,388 360.5,402.5 Q352,417 335,424.5 Q318,432 289,432 Q254,432 213,417 Q172,402 140,384 L140,0 L58,0 L58,488 L138,488 L139,446 L142,444 Q183,470 230,484.5 Q277,499 312,499 Q362,499 390.5,484.5 Q419,470 433.5,447.5 Q448,425 451.5,397 Q455,369 455,342 L455,0 M318,585 Q295,585 275,591 Q255,597 237,604.5 Q219,612 203,618 Q187,624 173,624 L116,585 L88,607 Q100,641 123,661.5 Q146,682 175,682 Q193,682 212.5,676 Q232,670 251,662.5 Q270,655 287.5,649 Q305,643 319,643 L376,683 L404,661 Q393,627 370,606 Q347,585 318,585"/> 
            <glyph glyph-name="ò" unicode="&#xF2;" horiz-adv-x="480" d=" M480,243 Q480,196 469.5,151 Q459,106 433.5,70.5 Q408,35 365,13.5 Q322,-8 258,-8 Q198,-8 157.5,12.5 Q117,33 93,67 Q69,101 58.5,146 Q48,191 48,241 Q48,290 60,336 Q72,382 98,418 Q124,454 166,476 Q208,498 268,498 Q329,498 370,476 Q411,454 435.5,418.5 Q460,383 470,337 Q480,291 480,243 M395,241 Q395,274 390.5,308 Q386,342 372,370.5 Q358,399 333,417 Q308,435 268,435 Q227,435 201,417.5 Q175,400 160,372.5 Q145,345 139,310 Q133,275 133,241 Q133,205 138,171 Q143,137 157.5,111.5 Q172,86 198.5,70.5 Q225,55 268,55 Q308,55 332.5,71.5 Q357,88 371,115 Q385,142 390,175 Q395,208 395,241 M137,674 L197,731 L320,569 L282,535"/> 
            <glyph glyph-name="ó" unicode="&#xF3;" horiz-adv-x="480" d=" M480,243 Q480,196 469.5,151 Q459,106 433.5,70.5 Q408,35 365,13.5 Q322,-8 258,-8 Q198,-8 157.5,12.5 Q117,33 93,67 Q69,101 58.5,146 Q48,191 48,241 Q48,290 60,336 Q72,382 98,418 Q124,454 166,476 Q208,498 268,498 Q329,498 370,476 Q411,454 435.5,418.5 Q460,383 470,337 Q480,291 480,243 M395,241 Q395,274 390.5,308 Q386,342 372,370.5 Q358,399 333,417 Q308,435 268,435 Q227,435 201,417.5 Q175,400 160,372.5 Q145,345 139,310 Q133,275 133,241 Q133,205 138,171 Q143,137 157.5,111.5 Q172,86 198.5,70.5 Q225,55 268,55 Q308,55 332.5,71.5 Q357,88 371,115 Q385,142 390,175 Q395,208 395,241 M270,535 L234,566 L357,728 L415,674"/> 
            <glyph glyph-name="ô" unicode="&#xF4;" horiz-adv-x="480" d=" M480,243 Q480,196 469.5,151 Q459,106 433.5,70.5 Q408,35 365,13.5 Q322,-8 258,-8 Q198,-8 157.5,12.5 Q117,33 93,67 Q69,101 58.5,146 Q48,191 48,241 Q48,290 60,336 Q72,382 98,418 Q124,454 166,476 Q208,498 268,498 Q329,498 370,476 Q411,454 435.5,418.5 Q460,383 470,337 Q480,291 480,243 M395,241 Q395,274 390.5,308 Q386,342 372,370.5 Q358,399 333,417 Q308,435 268,435 Q227,435 201,417.5 Q175,400 160,372.5 Q145,345 139,310 Q133,275 133,241 Q133,205 138,171 Q143,137 157.5,111.5 Q172,86 198.5,70.5 Q225,55 268,55 Q308,55 332.5,71.5 Q357,88 371,115 Q385,142 390,175 Q395,208 395,241 M425,532 L270,625 L116,531 L93,559 L243,702 L298,702 L450,561"/> 
            <glyph glyph-name="õ" unicode="&#xF5;" horiz-adv-x="480" d=" M480,243 Q480,196 469.5,151 Q459,106 433.5,70.5 Q408,35 365,13.5 Q322,-8 258,-8 Q198,-8 157.5,12.5 Q117,33 93,67 Q69,101 58.5,146 Q48,191 48,241 Q48,290 60,336 Q72,382 98,418 Q124,454 166,476 Q208,498 268,498 Q329,498 370,476 Q411,454 435.5,418.5 Q460,383 470,337 Q480,291 480,243 M395,241 Q395,274 390.5,308 Q386,342 372,370.5 Q358,399 333,417 Q308,435 268,435 Q227,435 201,417.5 Q175,400 160,372.5 Q145,345 139,310 Q133,275 133,241 Q133,205 138,171 Q143,137 157.5,111.5 Q172,86 198.5,70.5 Q225,55 268,55 Q308,55 332.5,71.5 Q357,88 371,115 Q385,142 390,175 Q395,208 395,241 M340,572 Q317,572 297,578 Q277,584 259,591.5 Q241,599 225,605 Q209,611 195,611 L138,572 L110,594 Q122,628 145,648.5 Q168,669 197,669 Q215,669 234.5,663 Q254,657 273,649.5 Q292,642 309.5,636 Q327,630 341,630 L398,670 L426,648 Q415,614 392,593 Q369,572 340,572"/> 
            <glyph glyph-name="ö" unicode="&#xF6;" horiz-adv-x="480" d=" M480,243 Q480,196 469.5,151 Q459,106 433.5,70.5 Q408,35 365,13.5 Q322,-8 258,-8 Q198,-8 157.5,12.5 Q117,33 93,67 Q69,101 58.5,146 Q48,191 48,241 Q48,290 60,336 Q72,382 98,418 Q124,454 166,476 Q208,498 268,498 Q329,498 370,476 Q411,454 435.5,418.5 Q460,383 470,337 Q480,291 480,243 M395,241 Q395,274 390.5,308 Q386,342 372,370.5 Q358,399 333,417 Q308,435 268,435 Q227,435 201,417.5 Q175,400 160,372.5 Q145,345 139,310 Q133,275 133,241 Q133,205 138,171 Q143,137 157.5,111.5 Q172,86 198.5,70.5 Q225,55 268,55 Q308,55 332.5,71.5 Q357,88 371,115 Q385,142 390,175 Q395,208 395,241 M410,603 Q410,584 396,571.5 Q382,559 361,559 Q342,559 330,571.5 Q318,584 318,603 Q318,622 331,634.5 Q344,647 361,647 Q382,647 396,635 Q410,623 410,603 M222,603 Q222,584 209,571.5 Q196,559 176,559 Q156,559 143,571.5 Q130,584 130,603 Q130,622 144,634.5 Q158,647 175,647 Q196,647 209,635 Q222,623 222,603"/> 
            <glyph glyph-name="÷" unicode="&#xF7;" horiz-adv-x="474" d=" M330,457 Q330,436 315.5,421 Q301,406 281,406 Q260,406 245,421.5 Q230,437 230,457 Q230,478 244.5,492.5 Q259,507 280,507 Q301,507 315.5,492.5 Q330,478 330,457 M85,270 L85,328 L474,328 L474,270 M330,140 Q330,119 315.5,104 Q301,89 281,89 Q260,89 245,104.5 Q230,120 230,140 Q230,161 244.5,175 Q259,189 280,189 Q301,189 315.5,175 Q330,161 330,140"/> 
            <glyph glyph-name="ø" unicode="&#xF8;" horiz-adv-x="473" d=" M259,498 Q305,498 338.5,485.5 Q372,473 397,450 L433,497 Q443,497 453,497.5 Q463,498 473,498 L419,428 Q448,391 459.5,342.5 Q471,294 471,243 Q471,196 460.5,151 Q450,106 424.5,71 Q399,36 356,14.5 Q313,-7 249,-7 Q161,-7 112,36 L79,-6 Q68,-6 57.5,-6.5 Q47,-7 36,-7 L89,60 Q62,95 51,142 Q40,189 40,241 Q40,290 52,336 Q64,382 90,418 Q116,454 157.5,476 Q199,498 259,498 M386,241 Q386,271 381.5,303.5 Q377,336 364,363 L161,93 Q176,76 200,65.5 Q224,55 259,55 Q299,55 323.5,71.5 Q348,88 362,115 Q376,142 381,175 Q386,208 386,241 M259,434 Q219,434 193,417 Q167,400 152,373 Q137,346 130.5,312 Q124,278 124,244 Q124,213 128.5,181.5 Q133,150 144,125 L348,393 Q334,412 312.5,423 Q291,434 259,434"/> 
            <glyph glyph-name="ù" unicode="&#xF9;" horiz-adv-x="445" d=" M199,-11 Q149,-11 121,3 Q93,17 79,39.5 Q65,62 61.5,90 Q58,118 58,145 L58,488 L139,488 L139,165 Q139,139 141.5,119 Q144,99 152.5,85 Q161,71 177.5,63.5 Q194,56 223,56 Q251,56 290.5,71 Q330,86 365,118 L365,488 Q385,488 405,488.5 Q425,489 445,489 L445,0 L366,0 L365,55 L363,57 Q339,36 315,22.5 Q291,9 269.5,1.5 Q248,-6 230,-8.5 Q212,-11 199,-11 M128,674 L188,731 L311,569 L273,535"/> 
            <glyph glyph-name="ú" unicode="&#xFA;" horiz-adv-x="445" d=" M199,-11 Q149,-11 121,3 Q93,17 79,39.5 Q65,62 61.5,90 Q58,118 58,145 L58,488 L139,488 L139,165 Q139,139 141.5,119 Q144,99 152.5,85 Q161,71 177.5,63.5 Q194,56 223,56 Q251,56 290.5,71 Q330,86 365,118 L365,488 Q385,488 405,488.5 Q425,489 445,489 L445,0 L366,0 L365,55 L363,57 Q339,36 315,22.5 Q291,9 269.5,1.5 Q248,-6 230,-8.5 Q212,-11 199,-11 M247,535 L211,566 L334,728 L392,674"/> 
            <glyph glyph-name="û" unicode="&#xFB;" horiz-adv-x="445" d=" M199,-11 Q149,-11 121,3 Q93,17 79,39.5 Q65,62 61.5,90 Q58,118 58,145 L58,488 L139,488 L139,165 Q139,139 141.5,119 Q144,99 152.5,85 Q161,71 177.5,63.5 Q194,56 223,56 Q251,56 290.5,71 Q330,86 365,118 L365,488 Q385,488 405,488.5 Q425,489 445,489 L445,0 L366,0 L365,55 L363,57 Q339,36 315,22.5 Q291,9 269.5,1.5 Q248,-6 230,-8.5 Q212,-11 199,-11 M407,532 L252,625 L98,531 L75,559 L225,702 L280,702 L432,561"/> 
            <glyph glyph-name="ü" unicode="&#xFC;" horiz-adv-x="445" d=" M199,-11 Q149,-11 121,3 Q93,17 79,39.5 Q65,62 61.5,90 Q58,118 58,145 L58,488 L139,488 L139,165 Q139,139 141.5,119 Q144,99 152.5,85 Q161,71 177.5,63.5 Q194,56 223,56 Q251,56 290.5,71 Q330,86 365,118 L365,488 Q385,488 405,488.5 Q425,489 445,489 L445,0 L366,0 L365,55 L363,57 Q339,36 315,22.5 Q291,9 269.5,1.5 Q248,-6 230,-8.5 Q212,-11 199,-11 M399,603 Q399,584 385,571.5 Q371,559 350,559 Q331,559 319,571.5 Q307,584 307,603 Q307,622 320,634.5 Q333,647 350,647 Q371,647 385,635 Q399,623 399,603 M211,603 Q211,584 198,571.5 Q185,559 165,559 Q145,559 132,571.5 Q119,584 119,603 Q119,622 133,634.5 Q147,647 164,647 Q185,647 198,635 Q211,623 211,603"/> 
            <glyph glyph-name="ý" unicode="&#xFD;" horiz-adv-x="448" d=" M260,155 Q270,188 283,229 Q296,270 309.5,313.5 Q323,357 337,401.5 Q351,446 365,488 L448,488 Q425,418 401,345 Q377,272 352.5,198.5 Q328,125 303.5,52.5 Q279,-20 256,-89 Q238,-147 205,-181 Q172,-215 115,-215 Q104,-214 79.5,-212.5 Q55,-211 10,-198 L23,-141 Q50,-147 67.5,-149.5 Q85,-152 102,-152 Q131,-152 150,-138 Q169,-124 182,-84 L210,3 L171,3 L18,488 L97,488 L197,153 Q207,121 213.5,93 Q220,65 224,51 L229,51 M219,535 L183,566 L306,728 L364,674"/> 
            <glyph glyph-name="þ" unicode="&#xFE;" horiz-adv-x="473" d=" M58,685 L139,685 L139,441 Q139,441 140,440 Q169,463 209,478.5 Q249,494 288,494 Q340,494 375.5,474.5 Q411,455 433,422 Q455,389 464,345.5 Q473,302 473,253 Q473,197 462.5,148.5 Q452,100 428.5,65 Q405,30 367,10 Q329,-10 275,-10 Q261,-10 243.5,-8 Q226,-6 208,-2 Q190,2 172.5,9 Q155,16 140,25 L139,-208 L58,-208 M140,89 Q148,83 162,77 Q176,71 193,65.5 Q210,60 228,57 Q246,54 263,54 Q288,54 311,63.5 Q334,73 351.5,96.5 Q369,120 379,158.5 Q389,197 389,254 Q389,305 380,338.5 Q371,372 355.5,392.5 Q340,413 317.5,421.5 Q295,430 268,430 Q253,430 234.5,425.5 Q216,421 198,413.5 Q180,406 164.5,397.5 Q149,389 140,380"/> 
            <glyph glyph-name="ÿ" unicode="&#xFF;" horiz-adv-x="448" d=" M260,155 Q270,188 283,229 Q296,270 309.5,313.5 Q323,357 337,401.5 Q351,446 365,488 L448,488 Q425,418 401,345 Q377,272 352.5,198.5 Q328,125 303.5,52.5 Q279,-20 256,-89 Q238,-147 205,-181 Q172,-215 115,-215 Q104,-214 79.5,-212.5 Q55,-211 10,-198 L23,-141 Q50,-147 67.5,-149.5 Q85,-152 102,-152 Q131,-152 150,-138 Q169,-124 182,-84 L210,3 L171,3 L18,488 L97,488 L197,153 Q207,121 213.5,93 Q220,65 224,51 L229,51 M379,603 Q379,584 365,571.5 Q351,559 330,559 Q311,559 299,571.5 Q287,584 287,603 Q287,622 300,634.5 Q313,647 330,647 Q351,647 365,635 Q379,623 379,603 M191,603 Q191,584 178,571.5 Q165,559 145,559 Q125,559 112,571.5 Q99,584 99,603 Q99,622 113,634.5 Q127,647 144,647 Q165,647 178,635 Q191,623 191,603"/> 
            <glyph glyph-name="Ā" unicode="&#x100;" horiz-adv-x="568" d=" M479,0 Q465,45 451,89.5 Q437,134 423,179 L153,179 Q139,134 125,89.5 Q111,45 97,0 L10,0 Q71,186 128,357 Q185,528 236,685 L344,685 L568,0 M403,244 Q380,320 357,396.5 Q334,473 310,548 L290,615 L287,615 L267,547 Q256,510 245,474.5 Q234,439 223,402.5 Q212,366 200,327 Q188,288 174,244 M127,811 L453,811 L453,747 L127,747"/> 
            <glyph glyph-name="ā" unicode="&#x101;" horiz-adv-x="502" d=" M227,225 Q177,223 153,200 Q129,177 129,140 Q129,97 150,76 Q171,55 219,55 Q251,55 284.5,71.5 Q318,88 352,119 L352,233 M431,61 L497,61 L502,13 Q484,4 460.5,-1.5 Q437,-7 417,-7 Q388,-7 372,5 Q356,17 354,55 L353,56 Q325,32 299,19 Q273,6 251.5,0 Q230,-6 212.5,-7 Q195,-8 184,-8 Q142,-8 114.5,6 Q87,20 71,41 Q55,62 48.5,86.5 Q42,111 42,132 Q42,196 87.5,234.5 Q133,273 227,279 L352,287 L352,318 Q352,379 330,404 Q308,429 247,429 Q211,429 172,422 Q133,415 96,402 L78,457 Q120,476 170,486 Q220,496 266,496 Q343,496 387,460 Q431,424 431,334 M93,656 L422,656 L422,592 L93,592"/> 
            <glyph glyph-name="Ă" unicode="&#x102;" horiz-adv-x="568" d=" M479,0 Q465,45 451,89.5 Q437,134 423,179 L153,179 Q139,134 125,89.5 Q111,45 97,0 L10,0 Q71,186 128,357 Q185,528 236,685 L344,685 L568,0 M403,244 Q380,320 357,396.5 Q334,473 310,548 L290,615 L287,615 L267,547 Q256,510 245,474.5 Q234,439 223,402.5 Q212,366 200,327 Q188,288 174,244 M284,730 Q258,730 235,739.5 Q212,749 192,764.5 Q172,780 154.5,800.5 Q137,821 122,842 L169,875 Q196,838 227.5,815 Q259,792 288,792 Q297,792 310,794 Q323,796 340.5,803.5 Q358,811 380,826.5 Q402,842 430,869 L457,844 Q413,781 368.5,755.5 Q324,730 284,730"/> 
            <glyph glyph-name="ă" unicode="&#x103;" horiz-adv-x="502" d=" M227,225 Q177,223 153,200 Q129,177 129,140 Q129,97 150,76 Q171,55 219,55 Q251,55 284.5,71.5 Q318,88 352,119 L352,233 M431,61 L497,61 L502,13 Q484,4 460.5,-1.5 Q437,-7 417,-7 Q388,-7 372,5 Q356,17 354,55 L353,56 Q325,32 299,19 Q273,6 251.5,0 Q230,-6 212.5,-7 Q195,-8 184,-8 Q142,-8 114.5,6 Q87,20 71,41 Q55,62 48.5,86.5 Q42,111 42,132 Q42,196 87.5,234.5 Q133,273 227,279 L352,287 L352,318 Q352,379 330,404 Q308,429 247,429 Q211,429 172,422 Q133,415 96,402 L78,457 Q120,476 170,486 Q220,496 266,496 Q343,496 387,460 Q431,424 431,334 M250,551 Q224,551 201,560.5 Q178,570 158,586 Q138,602 120.5,622 Q103,642 88,663 L135,697 Q162,659 193,636.5 Q224,614 253,614 Q262,614 275.5,615.5 Q289,617 306.5,624.5 Q324,632 346,647.5 Q368,663 396,690 L423,665 Q379,602 334.5,576.5 Q290,551 250,551"/> 
            <glyph glyph-name="Ą" unicode="&#x104;" horiz-adv-x="601" d=" M510,0 Q489,-26 476.5,-56.5 Q464,-87 464,-110 Q464,-139 480,-150 Q496,-161 523,-161 Q543,-161 562,-157 Q581,-153 595,-150 L601,-182 Q577,-194 549,-201 Q521,-208 493,-208 Q446,-208 421.5,-189 Q397,-170 397,-136 Q397,-123 400,-106.5 Q403,-90 412,-71 Q421,-52 436.5,-32 Q452,-12 476,8 Q462,50 449.5,92.5 Q437,135 423,179 L153,179 Q139,134 125,89.5 Q111,45 97,0 L10,0 Q71,186 128,357 Q185,528 236,685 L344,685 L568,0 M403,244 Q380,320 357,396.5 Q334,473 310,548 L290,615 L287,615 L267,547 Q256,510 245,474.5 Q234,439 223,402.5 Q212,366 200,327 Q188,288 174,244"/> 
            <glyph glyph-name="ą" unicode="&#x105;" horiz-adv-x="519" d=" M431,61 L497,61 L502,13 Q485,4 463,-1 Q441,-6 421,-7 Q404,-33 393,-60.5 Q382,-88 382,-108 Q382,-137 398,-148 Q414,-159 441,-159 Q461,-159 480,-155 Q499,-151 513,-148 L519,-180 Q495,-192 467,-199 Q439,-206 411,-206 Q364,-206 339.5,-187 Q315,-168 315,-134 Q315,-109 328,-74 Q341,-39 382,-1 Q369,4 362,17 Q355,30 354,55 L353,56 Q325,32 299,19 Q273,6 251.5,0 Q230,-6 212.5,-7 Q195,-8 184,-8 Q142,-8 114.5,6 Q87,20 71,41 Q55,62 48.5,86.5 Q42,111 42,132 Q42,196 87.5,234.5 Q133,273 227,279 L352,287 L352,318 Q352,379 330,404 Q308,429 247,429 Q211,429 172,422 Q133,415 96,402 L78,457 Q120,476 170,486 Q220,496 266,496 Q343,496 387,460 Q431,424 431,334 M227,225 Q177,223 153,200 Q129,177 129,140 Q129,97 150,76 Q171,55 219,55 Q251,55 284.5,71.5 Q318,88 352,119 L352,233"/> 
            <glyph glyph-name="Ć" unicode="&#x106;" horiz-adv-x="549" d=" M360,696 Q416,696 459,687.5 Q502,679 533,668 L515,605 Q474,619 437,623.5 Q400,628 368,628 Q312,628 270.5,608 Q229,588 202,550.5 Q175,513 161.5,459 Q148,405 148,338 Q148,279 157.5,228.5 Q167,178 192,140.5 Q217,103 260,81.5 Q303,60 370,60 Q383,60 403,61.5 Q423,63 445,66 Q467,69 490,73.5 Q513,78 533,84 L549,24 Q531,17 507.5,11 Q484,5 458,1 Q432,-3 405.5,-5.5 Q379,-8 355,-8 Q273,-8 217,17 Q161,42 126,87.5 Q91,133 75.5,197 Q60,261 60,338 Q60,375 65.5,415.5 Q71,456 84.5,496 Q98,536 120.5,572 Q143,608 176,635.5 Q209,663 254.5,679.5 Q300,696 360,696 M346,729 L308,760 L431,921 L491,868"/> 
            <glyph glyph-name="ć" unicode="&#x107;" horiz-adv-x="436" d=" M132,246 Q132,205 139,171 Q146,137 162,111.5 Q178,86 205,72 Q232,58 273,58 Q311,58 344,66 Q377,74 414,89 L436,35 Q404,18 359.5,6 Q315,-6 266,-6 Q205,-6 163,12.5 Q121,31 95.5,64 Q70,97 59,141.5 Q48,186 48,238 Q48,277 57,322.5 Q66,368 90.5,407.5 Q115,447 158.5,473 Q202,499 271,499 Q304,499 339,494.5 Q374,490 412,474 L393,415 Q358,427 330,430 Q302,433 278,433 Q207,433 169.5,382 Q132,331 132,246 M234,535 L198,566 L321,728 L379,674"/> 
            <glyph glyph-name="Ĉ" unicode="&#x108;" horiz-adv-x="549" d=" M360,696 Q416,696 459,687.5 Q502,679 533,668 L515,605 Q474,619 437,623.5 Q400,628 368,628 Q312,628 270.5,608 Q229,588 202,550.5 Q175,513 161.5,459 Q148,405 148,338 Q148,279 157.5,228.5 Q167,178 192,140.5 Q217,103 260,81.5 Q303,60 370,60 Q383,60 403,61.5 Q423,63 445,66 Q467,69 490,73.5 Q513,78 533,84 L549,24 Q531,17 507.5,11 Q484,5 458,1 Q432,-3 405.5,-5.5 Q379,-8 355,-8 Q273,-8 217,17 Q161,42 126,87.5 Q91,133 75.5,197 Q60,261 60,338 Q60,375 65.5,415.5 Q71,456 84.5,496 Q98,536 120.5,572 Q143,608 176,635.5 Q209,663 254.5,679.5 Q300,696 360,696 M491,730 L336,819 L182,729 L159,757 L309,895 L364,895 L516,759"/> 
            <glyph glyph-name="ĉ" unicode="&#x109;" horiz-adv-x="436" d=" M132,246 Q132,205 139,171 Q146,137 162,111.5 Q178,86 205,72 Q232,58 273,58 Q311,58 344,66 Q377,74 414,89 L436,35 Q404,18 359.5,6 Q315,-6 266,-6 Q205,-6 163,12.5 Q121,31 95.5,64 Q70,97 59,141.5 Q48,186 48,238 Q48,277 57,322.5 Q66,368 90.5,407.5 Q115,447 158.5,473 Q202,499 271,499 Q304,499 339,494.5 Q374,490 412,474 L393,415 Q358,427 330,430 Q302,433 278,433 Q207,433 169.5,382 Q132,331 132,246 M408,532 L253,625 L99,531 L76,559 L226,702 L281,702 L433,561"/> 
            <glyph glyph-name="Ċ" unicode="&#x10A;" horiz-adv-x="549" d=" M360,696 Q416,696 459,687.5 Q502,679 533,668 L515,605 Q474,619 437,623.5 Q400,628 368,628 Q312,628 270.5,608 Q229,588 202,550.5 Q175,513 161.5,459 Q148,405 148,338 Q148,279 157.5,228.5 Q167,178 192,140.5 Q217,103 260,81.5 Q303,60 370,60 Q383,60 403,61.5 Q423,63 445,66 Q467,69 490,73.5 Q513,78 533,84 L549,24 Q531,17 507.5,11 Q484,5 458,1 Q432,-3 405.5,-5.5 Q379,-8 355,-8 Q273,-8 217,17 Q161,42 126,87.5 Q91,133 75.5,197 Q60,261 60,338 Q60,375 65.5,415.5 Q71,456 84.5,496 Q98,536 120.5,572 Q143,608 176,635.5 Q209,663 254.5,679.5 Q300,696 360,696 M393,819 Q393,796 376,779.5 Q359,763 336,763 Q313,763 297,779.5 Q281,796 281,819 Q281,842 297,859 Q313,876 336,876 Q359,876 376,859 Q393,842 393,819"/> 
            <glyph glyph-name="ċ" unicode="&#x10B;" horiz-adv-x="436" d=" M132,246 Q132,205 139,171 Q146,137 162,111.5 Q178,86 205,72 Q232,58 273,58 Q311,58 344,66 Q377,74 414,89 L436,35 Q404,18 359.5,6 Q315,-6 266,-6 Q205,-6 163,12.5 Q121,31 95.5,64 Q70,97 59,141.5 Q48,186 48,238 Q48,277 57,322.5 Q66,368 90.5,407.5 Q115,447 158.5,473 Q202,499 271,499 Q304,499 339,494.5 Q374,490 412,474 L393,415 Q358,427 330,430 Q302,433 278,433 Q207,433 169.5,382 Q132,331 132,246 M309,620 Q309,597 294,581.5 Q279,566 258,566 Q237,566 223,581.5 Q209,597 209,620 Q209,643 223,659 Q237,675 258,675 Q279,675 294,659 Q309,643 309,620"/> 
            <glyph glyph-name="Č" unicode="&#x10C;" horiz-adv-x="549" d=" M360,696 Q416,696 459,687.5 Q502,679 533,668 L515,605 Q474,619 437,623.5 Q400,628 368,628 Q312,628 270.5,608 Q229,588 202,550.5 Q175,513 161.5,459 Q148,405 148,338 Q148,279 157.5,228.5 Q167,178 192,140.5 Q217,103 260,81.5 Q303,60 370,60 Q383,60 403,61.5 Q423,63 445,66 Q467,69 490,73.5 Q513,78 533,84 L549,24 Q531,17 507.5,11 Q484,5 458,1 Q432,-3 405.5,-5.5 Q379,-8 355,-8 Q273,-8 217,17 Q161,42 126,87.5 Q91,133 75.5,197 Q60,261 60,338 Q60,375 65.5,415.5 Q71,456 84.5,496 Q98,536 120.5,572 Q143,608 176,635.5 Q209,663 254.5,679.5 Q300,696 360,696 M516,863 L364,728 L310,728 L159,865 L182,892 L337,801 L492,892"/> 
            <glyph glyph-name="č" unicode="&#x10D;" horiz-adv-x="443" d=" M132,246 Q132,205 139,171 Q146,137 162,111.5 Q178,86 205,72 Q232,58 273,58 Q311,58 344,66 Q377,74 414,89 L436,35 Q404,18 359.5,6 Q315,-6 266,-6 Q205,-6 163,12.5 Q121,31 95.5,64 Q70,97 59,141.5 Q48,186 48,238 Q48,277 57,322.5 Q66,368 90.5,407.5 Q115,447 158.5,473 Q202,499 271,499 Q304,499 339,494.5 Q374,490 412,474 L393,415 Q358,427 330,430 Q302,433 278,433 Q207,433 169.5,382 Q132,331 132,246 M443,686 L291,545 L237,545 L86,688 L109,716 L264,619 L419,715"/> 
            </font>
</defs>
</svg>
